<svg width="16" height="14" viewBox="0 0 16 14" fill="none" xmlns="http://www.w3.org/2000/svg">
<path d="M13.5535 1.7925C12.5178 1.30548 11.4104 0.951539 10.2526 0.75C10.1104 1.00837 9.94429 1.35587 9.82976 1.63231C8.599 1.44629 7.37956 1.44629 6.17144 1.63231C6.05693 1.35587 5.88704 1.00837 5.74357 0.75C4.58454 0.951539 3.47584 1.30678 2.44013 1.79508C0.351095 4.96775 -0.215207 8.06161 0.0679444 11.1115C1.4535 12.1514 2.79627 12.7831 4.11638 13.1965C4.44233 12.7457 4.73302 12.2664 4.98345 11.7613C4.5065 11.5792 4.04969 11.3544 3.61805 11.0935C3.73256 11.0082 3.84457 10.9191 3.95279 10.8273C6.58546 12.0649 9.44593 12.0649 12.0472 10.8273C12.1566 10.9191 12.2686 11.0082 12.3819 11.0935C11.949 11.3557 11.4909 11.5805 11.014 11.7626C11.2644 12.2664 11.5538 12.747 11.881 13.1978C13.2024 12.7844 14.5464 12.1527 15.932 11.1115C16.2642 7.57589 15.3644 4.51044 13.5535 1.7925ZM5.34212 9.23586C4.55181 9.23586 3.9037 8.49436 3.9037 7.59139C3.9037 6.68842 4.53797 5.94564 5.34212 5.94564C6.14628 5.94564 6.79437 6.68712 6.78053 7.59139C6.78178 8.49436 6.14628 9.23586 5.34212 9.23586ZM10.6578 9.23586C9.86752 9.23586 9.21941 8.49436 9.21941 7.59139C9.21941 6.68842 9.85366 5.94564 10.6578 5.94564C11.462 5.94564 12.1101 6.68712 12.0962 7.59139C12.0962 8.49436 11.462 9.23586 10.6578 9.23586Z" fill="white"/>
</svg>
