<svg width="16" height="14" viewBox="0 0 16 14" fill="none" xmlns="http://www.w3.org/2000/svg">
<path d="M16 2.08657C15.4113 2.3464 14.7787 2.52201 14.1146 2.60099C14.7924 2.19666 15.3129 1.55643 15.558 0.793606C14.9237 1.16794 14.2212 1.43983 13.4735 1.58637C12.8747 0.951449 12.0216 0.554688 11.0774 0.554688C9.26454 0.554688 7.79475 2.01738 7.79475 3.8215C7.79475 4.07754 7.82384 4.32689 7.87979 4.56598C5.15162 4.42975 2.73286 3.12915 1.11384 1.15268C0.831281 1.63518 0.669403 2.19637 0.669403 2.79506C0.669403 3.92844 1.24897 4.92838 2.12976 5.5142C1.59163 5.49725 1.08551 5.3503 0.642891 5.10562C0.642657 5.11925 0.642657 5.13293 0.642657 5.14668C0.642657 6.72953 1.77417 8.04993 3.27585 8.35001C3.00037 8.42467 2.71038 8.46457 2.41097 8.46457C2.19947 8.46457 1.99381 8.44413 1.79342 8.40598C2.21111 9.7039 3.42339 10.6484 4.85981 10.6748C3.73638 11.5509 2.32096 12.0732 0.783057 12.0732C0.518117 12.0732 0.256805 12.0578 0 12.0276C1.45269 12.9545 3.17817 13.4953 5.03193 13.4953C11.0698 13.4953 14.3715 8.51734 14.3715 4.20032C14.3715 4.05867 14.3683 3.91778 14.362 3.7777C15.0033 3.3171 15.5599 2.74171 16 2.08657Z" fill="#55ACEE"/>
</svg>
