<svg width="16" height="16" viewBox="0 0 16 16" fill="none" xmlns="http://www.w3.org/2000/svg">
<g clip-path="url(#clip0_66_4261)">
<path d="M8 16C12.4183 16 16 12.4183 16 8C16 3.58172 12.4183 0 8 0C3.58172 0 0 3.58172 0 8C0 12.4183 3.58172 16 8 16Z" fill="black"/>
<path d="M11.6493 3.51562H13.1422L10.0347 6.73754C8.90961 7.90406 7.08556 7.90406 5.96288 6.73754L2.85542 3.51562H4.34827L6.70808 5.96311C7.42163 6.70101 8.57597 6.70101 9.28708 5.96311L11.6493 3.51562ZM4.32878 12.4776H2.83594L5.96288 9.23374C7.08799 8.06722 8.91204 8.06722 10.0372 9.23374L13.1641 12.4776H11.6712L9.29195 10.0082C8.5784 9.27027 7.42407 9.27027 6.71295 10.0082L4.32878 12.4776Z" fill="white"/>
</g>
<defs>
<clipPath id="clip0_66_4261">
<rect width="16" height="16" fill="white"/>
</clipPath>
</defs>
</svg>
