<svg width="20" height="20" viewBox="0 0 20 20" fill="none" xmlns="http://www.w3.org/2000/svg">
<path fill-rule="evenodd" clip-rule="evenodd" d="M10 0.25C4.615 0.25 0.25 4.615 0.25 10C0.25 15.385 4.615 19.75 10 19.75C15.385 19.75 19.75 15.385 19.75 10C19.75 4.615 15.385 0.25 10 0.25ZM10.75 4C10.75 3.80109 10.671 3.61032 10.5303 3.46967C10.3897 3.32902 10.1989 3.25 10 3.25C9.80109 3.25 9.61032 3.32902 9.46967 3.46967C9.32902 3.61032 9.25 3.80109 9.25 4V4.816C8.62286 4.92153 8.0318 5.18132 7.53 5.572C6.818 6.138 6.418 6.922 6.418 7.75C6.418 8.579 6.818 9.362 7.531 9.928C8.033 10.328 8.633 10.575 9.25 10.684V13.662C8.91782 13.585 8.60458 13.4418 8.329 13.241L7.45 12.581C7.37121 12.5219 7.28155 12.4789 7.18614 12.4545C7.09073 12.43 6.99144 12.4246 6.89393 12.4385C6.69702 12.4667 6.51935 12.5719 6.4 12.731C6.28065 12.8901 6.22941 13.0902 6.25754 13.2871C6.28567 13.484 6.39087 13.6617 6.55 13.781L7.429 14.441C7.962 14.841 8.598 15.086 9.25 15.191V16C9.25 16.1989 9.32902 16.3897 9.46967 16.5303C9.61032 16.671 9.80109 16.75 10 16.75C10.1989 16.75 10.3897 16.671 10.5303 16.5303C10.671 16.3897 10.75 16.1989 10.75 16V15.19C11.4086 15.091 12.0334 14.834 12.571 14.441C13.316 13.882 13.75 13.097 13.75 12.25C13.75 11.403 13.316 10.618 12.571 10.059C12.0335 9.66554 11.4087 9.40819 10.75 9.309V6.354C11.04 6.436 11.309 6.567 11.536 6.747L11.951 7.077C12.1068 7.20072 12.3054 7.25748 12.5031 7.23479C12.7007 7.2121 12.8813 7.11181 13.005 6.956C13.1287 6.80019 13.1855 6.6016 13.1628 6.40394C13.1401 6.20628 13.0398 6.02572 12.884 5.902L12.469 5.572C11.9674 5.18183 11.3767 4.92239 10.75 4.817V4Z" fill="#3052FF"/>
</svg>
