<svg width="10" height="18" viewBox="0 0 10 18" fill="none" xmlns="http://www.w3.org/2000/svg">
<path fill-rule="evenodd" clip-rule="evenodd" d="M9.27692 8.46692C9.41737 8.60754 9.49626 8.79817 9.49626 8.99692C9.49626 9.19567 9.41737 9.38629 9.27692 9.52692L1.77692 17.0269C1.63474 17.1594 1.4467 17.2315 1.25239 17.2281C1.05809 17.2247 0.872708 17.146 0.735295 17.0085C0.597882 16.8711 0.51917 16.6857 0.515742 16.4914C0.512314 16.2971 0.584437 16.1091 0.716917 15.9669L7.68692 8.99692L0.716917 2.02692C0.584437 1.88474 0.512314 1.6967 0.515742 1.50239C0.51917 1.30809 0.597882 1.12271 0.735295 0.985295C0.872708 0.847882 1.05809 0.76917 1.25239 0.765742C1.4467 0.762314 1.63474 0.834437 1.77692 0.966917L9.27692 8.46692Z" fill="#ACB1C1"/>
</svg>
