<svg width="22" height="22" viewBox="0 0 22 22" fill="none" xmlns="http://www.w3.org/2000/svg">
<path fill-rule="evenodd" clip-rule="evenodd" d="M18.9031 3.09915C18.5549 2.75082 18.1415 2.47451 17.6864 2.28599C17.2314 2.09748 16.7437 2.00045 16.2511 2.00045C15.7586 2.00045 15.2709 2.09748 14.8159 2.28599C14.3608 2.47451 13.9474 2.75082 13.5991 3.09915L9.09915 7.59915C8.67461 8.02331 8.35807 8.54317 8.17613 9.11506C7.99418 9.68694 7.95215 10.2941 8.05356 10.8856C8.15496 11.4771 8.39685 12.0356 8.75889 12.5143C9.12094 12.9929 9.59256 13.3776 10.1341 13.6361C10.3075 13.7255 10.4392 13.8787 10.5014 14.0635C10.5636 14.2483 10.5514 14.45 10.4674 14.626C10.3834 14.8019 10.2342 14.9382 10.0514 15.006C9.86858 15.0738 9.66656 15.0678 9.48815 14.9891C8.73026 14.6271 8.07029 14.0885 7.56366 13.4186C7.05703 12.7487 6.71853 11.967 6.57657 11.1392C6.43461 10.3114 6.49335 9.46154 6.74785 8.66111C7.00234 7.86068 7.44517 7.13299 8.03915 6.53915L12.5391 2.03915C13.0243 1.54128 13.6035 1.14472 14.2431 0.872478C14.8827 0.600235 15.5701 0.457731 16.2652 0.453235C16.9604 0.448739 17.6495 0.58234 18.2926 0.846285C18.9357 1.11023 19.5199 1.49927 20.0115 1.99081C20.503 2.48236 20.8921 3.06664 21.156 3.70973C21.42 4.35283 21.5536 5.04194 21.5491 5.73708C21.5446 6.43222 21.4021 7.11955 21.1298 7.75918C20.8576 8.3988 20.461 8.978 19.9631 9.46315L18.2061 11.2201C18.1375 11.2938 18.0547 11.3529 17.9627 11.3939C17.8707 11.4349 17.7714 11.457 17.6707 11.4587C17.57 11.4605 17.4699 11.442 17.3765 11.4043C17.2832 11.3665 17.1983 11.3104 17.1271 11.2392C17.0559 11.168 16.9997 11.0831 16.962 10.9897C16.9243 10.8964 16.9058 10.7963 16.9076 10.6956C16.9093 10.5949 16.9314 10.4956 16.9724 10.4036C17.0134 10.3116 17.0725 10.2288 17.1461 10.1601L18.9031 8.40315C19.2515 8.05491 19.5278 7.64147 19.7163 7.18644C19.9048 6.7314 20.0018 6.24369 20.0018 5.75115C20.0018 5.25861 19.9048 4.77089 19.7163 4.31585C19.5278 3.86082 19.2515 3.44738 18.9031 3.09915ZM11.5141 7.36615C11.6 7.18675 11.7535 7.04879 11.9411 6.98259C12.1286 6.91639 12.3347 6.92738 12.5141 7.01315C13.272 7.37517 13.932 7.91376 14.4386 8.58367C14.9453 9.25358 15.2838 10.0353 15.4257 10.8631C15.5677 11.6909 15.5089 12.5408 15.2544 13.3412C15 14.1416 14.5571 14.8693 13.9631 15.4631L9.46315 19.9631C8.978 20.461 8.3988 20.8576 7.75918 21.1298C7.11955 21.4021 6.43222 21.5446 5.73708 21.5491C5.04194 21.5536 4.35283 21.42 3.70973 21.156C3.06664 20.8921 2.48236 20.503 1.99081 20.0115C1.49927 19.5199 1.11023 18.9357 0.846285 18.2926C0.58234 17.6495 0.448739 16.9604 0.453235 16.2652C0.457731 15.5701 0.600235 14.8827 0.872478 14.2431C1.14472 13.6035 1.54128 13.0243 2.03915 12.5391L3.79615 10.7821C3.86481 10.7085 3.94761 10.6494 4.03961 10.6084C4.13161 10.5674 4.23092 10.5453 4.33162 10.5436C4.43233 10.5418 4.53236 10.5603 4.62574 10.598C4.71913 10.6357 4.80397 10.6919 4.87518 10.7631C4.9464 10.8343 5.00255 10.9192 5.04027 11.0125C5.07799 11.1059 5.09651 11.206 5.09474 11.3067C5.09296 11.4074 5.07092 11.5067 5.02993 11.5987C4.98893 11.6907 4.92983 11.7735 4.85615 11.8421L3.09915 13.5991C2.75088 13.9474 2.47462 14.3609 2.28614 14.8159C2.09766 15.2709 2.00065 15.7586 2.00065 16.2511C2.00065 16.7437 2.09766 17.2314 2.28614 17.6864C2.47462 18.1414 2.75088 18.5549 3.09915 18.9031C3.44741 19.2514 3.86086 19.5277 4.31589 19.7162C4.77092 19.9046 5.25862 20.0016 5.75115 20.0016C6.24367 20.0016 6.73137 19.9046 7.1864 19.7162C7.64143 19.5277 8.05488 19.2514 8.40315 18.9031L12.9031 14.4031C13.3277 13.979 13.6442 13.4591 13.8262 12.8872C14.0081 12.3154 14.0501 11.7082 13.9487 11.1167C13.8473 10.5252 13.6054 9.96665 13.2434 9.48803C12.8814 9.00942 12.4097 8.62468 11.8681 8.36615C11.7792 8.32374 11.6995 8.26423 11.6336 8.19102C11.5677 8.11782 11.5169 8.03234 11.484 7.93948C11.4511 7.84661 11.4369 7.74819 11.442 7.64981C11.4472 7.55144 11.4717 7.45505 11.5141 7.36615Z" fill="#3052FF"/>
</svg>
