<svg width="19" height="20" viewBox="0 0 19 20" fill="none" xmlns="http://www.w3.org/2000/svg">
<path fill-rule="evenodd" clip-rule="evenodd" d="M3.5 1.75C3.10218 1.75 2.72064 1.90804 2.43934 2.18934C2.15804 2.47064 2 2.85218 2 3.25V16.75C2 17.1478 2.15804 17.5294 2.43934 17.8107C2.72064 18.092 3.10218 18.25 3.5 18.25H9.5C9.89782 18.25 10.2794 18.092 10.5607 17.8107C10.842 17.5294 11 17.1478 11 16.75V13C11 12.8011 11.079 12.6103 11.2197 12.4697C11.3603 12.329 11.5511 12.25 11.75 12.25C11.9489 12.25 12.1397 12.329 12.2803 12.4697C12.421 12.6103 12.5 12.8011 12.5 13V16.75C12.5 17.5456 12.1839 18.3087 11.6213 18.8713C11.0587 19.4339 10.2956 19.75 9.5 19.75H3.5C2.70435 19.75 1.94129 19.4339 1.37868 18.8713C0.816071 18.3087 0.5 17.5456 0.5 16.75V3.25C0.5 2.45435 0.816071 1.69129 1.37868 1.12868C1.94129 0.566071 2.70435 0.25 3.5 0.25H9.5C10.2956 0.25 11.0587 0.566071 11.6213 1.12868C12.1839 1.69129 12.5 2.45435 12.5 3.25V7C12.5 7.19891 12.421 7.38968 12.2803 7.53033C12.1397 7.67098 11.9489 7.75 11.75 7.75C11.5511 7.75 11.3603 7.67098 11.2197 7.53033C11.079 7.38968 11 7.19891 11 7V3.25C11 2.85218 10.842 2.47064 10.5607 2.18934C10.2794 1.90804 9.89782 1.75 9.5 1.75H3.5ZM14.22 6.47C14.3606 6.32955 14.5512 6.25066 14.75 6.25066C14.9488 6.25066 15.1394 6.32955 15.28 6.47L18.28 9.47C18.4205 9.61063 18.4993 9.80125 18.4993 10C18.4993 10.1988 18.4205 10.3894 18.28 10.53L15.28 13.53C15.2113 13.6037 15.1285 13.6628 15.0365 13.7038C14.9445 13.7448 14.8452 13.7668 14.7445 13.7686C14.6438 13.7704 14.5438 13.7518 14.4504 13.7141C14.357 13.6764 14.2722 13.6203 14.201 13.549C14.1297 13.4778 14.0736 13.393 14.0359 13.2996C13.9982 13.2062 13.9796 13.1062 13.9814 13.0055C13.9832 12.9048 14.0052 12.8055 14.0462 12.7135C14.0872 12.6215 14.1463 12.5387 14.22 12.47L15.94 10.75H5C4.80109 10.75 4.61032 10.671 4.46967 10.5303C4.32902 10.3897 4.25 10.1989 4.25 10C4.25 9.80109 4.32902 9.61032 4.46967 9.46967C4.61032 9.32902 4.80109 9.25 5 9.25H15.94L14.22 7.53C14.0795 7.38937 14.0007 7.19875 14.0007 7C14.0007 6.80125 14.0795 6.61063 14.22 6.47Z" fill="#3052FF"/>
</svg>
