<?xml version="1.0" encoding="UTF-8"?>
<!DOCTYPE svg PUBLIC "-//W3C//DTD SVG 1.1//EN" "http://www.w3.org/Graphics/SVG/1.1/DTD/svg11.dtd">
<svg xmlns="http://www.w3.org/2000/svg" version="1.1" width="529px" height="529px" style="shape-rendering:geometricPrecision; text-rendering:geometricPrecision; image-rendering:optimizeQuality; fill-rule:evenodd; clip-rule:evenodd" xmlns:xlink="http://www.w3.org/1999/xlink">
    <g><path style="opacity:1" fill="#f2f2f2" d="M -0.5,-0.5 C 12.1667,-0.5 24.8333,-0.5 37.5,-0.5C 18.4941,2.83862 6.49407,13.8386 1.5,32.5C 0.833333,34.1667 0.166667,35.8333 -0.5,37.5C -0.5,24.8333 -0.5,12.1667 -0.5,-0.5 Z"/></g>
    <g><path style="opacity:1" fill="#020203" d="M 37.5,-0.5 C 113.167,-0.5 188.833,-0.5 264.5,-0.5C 285.077,1.74517 298.41,12.7452 304.5,32.5C 305.459,61.479 305.792,90.479 305.5,119.5C 371.5,119.5 437.5,119.5 503.5,119.5C 517.45,120.95 525.283,128.617 527,142.5C 527.667,200.167 527.667,257.833 527,315.5C 526.092,328.474 519.258,336.307 506.5,339C 437.167,339.5 367.834,339.667 298.5,339.5C 242.001,338.667 185.335,338.167 128.5,338C 127.939,336.324 126.939,334.991 125.5,334C 127.993,330.014 130.659,326.18 133.5,322.5C 149.833,305.833 166.167,289.167 182.5,272.5C 184.167,271.5 185.5,270.167 186.5,268.5C 187.333,225.335 187.833,182.002 188,138.5C 188.608,136.846 189.108,135.179 189.5,133.5C 190.529,131.483 191.529,129.483 192.5,127.5C 195.009,126.079 197.343,124.412 199.5,122.5C 202.179,121.774 204.846,120.941 207.5,120C 234.831,119.5 262.165,119.333 289.5,119.5C 289.5,108.167 289.5,96.8333 289.5,85.5C 244.338,84.1667 198.838,83.5001 153,83.5C 107.332,83.5 61.8321,83.8333 16.5,84.5C 15.334,203.999 15.1674,323.666 16,443.5C 107.43,444.665 198.93,444.832 290.5,444C 290.517,415.708 290.517,387.208 290.5,358.5C 292.735,358.795 294.735,358.461 296.5,357.5C 296.833,357.5 297.167,357.5 297.5,357.5C 300.167,357.5 302.833,357.5 305.5,357.5C 305.667,402.835 305.5,448.168 305,493.5C 299.033,513.802 285.533,524.968 264.5,527C 188.833,527.667 113.167,527.667 37.5,527C 14.3662,522.704 2.03282,508.87 0.5,485.5C 0.178677,334.489 0.512011,183.489 1.5,32.5C 6.49407,13.8386 18.4941,2.83862 37.5,-0.5 Z"/></g>
    <g><path style="opacity:1" fill="#636972" d="M 269.5,17.5 C 190.478,17.1782 111.478,17.5115 32.5,18.5C 33.2625,17.7321 34.2625,17.2321 35.5,17C 113.668,16.1677 191.668,16.3344 269.5,17.5 Z"/></g>
    <g><path style="opacity:1" fill="#8b94a3" d="M 269.5,17.5 C 278.288,19.7868 284.454,25.1202 288,33.5C 289.433,44.7564 289.933,56.0898 289.5,67.5C 198.5,67.5 107.5,67.5 16.5,67.5C 15.6394,54.2337 16.806,41.2337 20,28.5C 23.4839,24.1689 27.6505,20.8356 32.5,18.5C 111.478,17.5115 190.478,17.1782 269.5,17.5 Z"/></g>
    <g><path style="opacity:1" fill="#111012" d="M 1.5,32.5 C 0.512011,183.489 0.178677,334.489 0.5,485.5C 0.166667,485.5 -0.166667,485.5 -0.5,485.5C -0.5,336.167 -0.5,186.833 -0.5,37.5C 0.166667,35.8333 0.833333,34.1667 1.5,32.5 Z"/></g>
    <g><path style="opacity:1" fill="#b1b1b1" d="M 304.5,32.5 C 305.578,34.5394 306.578,36.706 307.5,39C 306.505,65.4258 306.172,91.9258 306.5,118.5C 372.335,118.168 438.002,118.501 503.5,119.5C 437.5,119.5 371.5,119.5 305.5,119.5C 305.792,90.479 305.459,61.479 304.5,32.5 Z"/></g>
    <g><path style="opacity:1" fill="#002838" d="M 16.5,84.5 C 61.8321,83.8333 107.332,83.5 153,83.5C 198.838,83.5001 244.338,84.1667 289.5,85.5C 289.167,85.5 288.833,85.5 288.5,85.5C 198.002,84.5006 107.335,84.1673 16.5,84.5 Z"/></g>
    <g><path style="opacity:1" fill="#49b8e6" d="M 288.5,85.5 C 288.5,96.5 288.5,107.5 288.5,118.5C 260.831,118.333 233.165,118.5 205.5,119C 204.255,119.791 202.922,120.291 201.5,120.5C 201.586,119.504 201.252,118.671 200.5,118C 202.833,117.667 205.167,117.333 207.5,117C 234.165,116.5 260.831,116.333 287.5,116.5C 287.5,106.5 287.5,96.5 287.5,86.5C 197.833,86.5 108.167,86.5 18.5,86.5C 18.8328,196.001 18.4995,305.335 17.5,414.5C 17.5,304.833 17.5,195.167 17.5,85.5C 107.833,85.5 198.167,85.5 288.5,85.5 Z"/></g>
    <g><path style="opacity:1" fill="#38c2fb" d="M 201.5,120.5 C 200.5,120.833 199.833,121.5 199.5,122.5C 197.343,124.412 195.009,126.079 192.5,127.5C 190.193,129.338 187.86,131.338 185.5,133.5C 185.833,134.167 186.167,134.833 186.5,135.5C 185.672,179.125 185.172,222.792 185,266.5C 182.984,267.955 182.151,269.955 182.5,272.5C 166.167,289.167 149.833,305.833 133.5,322.5C 128.5,327.167 123.5,331.833 118.5,336.5C 116.896,337.287 116.229,338.62 116.5,340.5C 138.833,340.5 161.167,340.5 183.5,340.5C 185.265,341.461 187.265,341.795 189.5,341.5C 193.554,343.441 197.888,344.941 202.5,346C 219.855,349.506 237.188,353.006 254.5,356.5C 254.178,362.358 254.511,368.025 255.5,373.5C 260.833,374.833 266.167,374.833 271.5,373.5C 272.485,369.366 272.818,365.032 272.5,360.5C 277.773,361.818 283.107,362.818 288.5,363.5C 288.5,380.833 288.5,398.167 288.5,415.5C 198.237,416.497 107.904,416.831 17.5,416.5C 17.5,415.833 17.5,415.167 17.5,414.5C 18.4995,305.335 18.8328,196.001 18.5,86.5C 108.167,86.5 197.833,86.5 287.5,86.5C 287.5,96.5 287.5,106.5 287.5,116.5C 260.831,116.333 234.165,116.5 207.5,117C 205.167,117.333 202.833,117.667 200.5,118C 201.252,118.671 201.586,119.504 201.5,120.5 Z"/></g>
    <g><path style="opacity:1" fill="#3283a1" d="M 16.5,84.5 C 107.335,84.1673 198.002,84.5006 288.5,85.5C 198.167,85.5 107.833,85.5 17.5,85.5C 17.5,195.167 17.5,304.833 17.5,414.5C 17.5,415.167 17.5,415.833 17.5,416.5C 17.1667,416.5 16.8333,416.5 16.5,416.5C 16.5,305.833 16.5,195.167 16.5,84.5 Z"/></g>
    <g><path style="opacity:1" fill="#155470" d="M 288.5,85.5 C 288.833,85.5 289.167,85.5 289.5,85.5C 289.5,96.8333 289.5,108.167 289.5,119.5C 262.165,119.333 234.831,119.5 207.5,120C 204.846,120.941 202.179,121.774 199.5,122.5C 199.833,121.5 200.5,120.833 201.5,120.5C 202.922,120.291 204.255,119.791 205.5,119C 233.165,118.5 260.831,118.333 288.5,118.5C 288.5,107.5 288.5,96.5 288.5,85.5 Z"/></g>
    <g><path style="opacity:1" fill="#b0b0b0" d="M 209.5,136.5 C 307.332,135.334 405.332,135.168 503.5,136C 504.737,136.232 505.737,136.732 506.5,137.5C 407.522,136.509 308.522,136.176 209.5,136.5 Z"/></g>
    <g><path style="opacity:1" fill="#e9e9e9" d="M 209.5,136.5 C 308.522,136.176 407.522,136.509 506.5,137.5C 507.794,138.29 508.961,139.29 510,140.5C 510.833,199.836 510.667,259.169 509.5,318.5C 508.712,319.77 507.712,320.77 506.5,321.5C 390.354,322.826 274.354,322.826 158.5,321.5C 173.131,306.368 187.965,291.368 203,276.5C 203.333,231.5 203.667,186.5 204,141.5C 205.076,138.921 206.909,137.254 209.5,136.5 Z"/></g>
    <g><path style="opacity:1" fill="#ebedec" d="M 223.5,153.5 C 314.167,153.5 404.833,153.5 495.5,153.5C 495.5,154.833 495.5,156.167 495.5,157.5C 498.247,157.187 500.914,157.52 503.5,158.5C 501.51,211.352 500.844,264.352 501.5,317.5C 406.833,317.5 312.167,317.5 217.5,317.5C 218.156,264.352 217.49,211.352 215.5,158.5C 218.086,157.52 220.753,157.187 223.5,157.5C 223.5,156.167 223.5,154.833 223.5,153.5 Z"/></g>
    <g><path style="opacity:1" fill="#46aad5" d="M 192.5,127.5 C 191.529,129.483 190.529,131.483 189.5,133.5C 188.034,134.347 187.2,135.68 187,137.5C 186.5,181.165 186.333,224.832 186.5,268.5C 185.5,270.167 184.167,271.5 182.5,272.5C 182.151,269.955 182.984,267.955 185,266.5C 185.172,222.792 185.672,179.125 186.5,135.5C 186.167,134.833 185.833,134.167 185.5,133.5C 187.86,131.338 190.193,129.338 192.5,127.5 Z"/></g>
    <g><path style="opacity:1" fill="#195b77" d="M 189.5,133.5 C 189.108,135.179 188.608,136.846 188,138.5C 187.833,182.002 187.333,225.335 186.5,268.5C 186.333,224.832 186.5,181.165 187,137.5C 187.2,135.68 188.034,134.347 189.5,133.5 Z"/></g>
    <g><path style="opacity:1" fill="#060508" d="M 464.5,205.5 C 464.821,199.974 464.488,194.64 463.5,189.5C 463.149,179.023 468.149,174.856 478.5,177C 480.848,177.346 482.681,178.513 484,180.5C 484.493,195.18 484.16,209.846 483,224.5C 483.844,231.506 480.844,235.506 474,236.5C 471.077,236.205 468.743,234.871 467,232.5C 465.865,223.528 465.032,214.528 464.5,205.5 Z"/></g>
    <g><path style="opacity:1" fill="#050406" d="M 255.5,234.5 C 257.319,231.826 258.986,228.993 260.5,226C 254.801,215.435 248.967,204.935 243,194.5C 241.842,189.693 242.676,185.36 245.5,181.5C 251.832,178.355 257.666,179.021 263,183.5C 267,192.167 271,200.833 275,209.5C 279.645,199.894 284.478,190.394 289.5,181C 297.255,177.741 303.422,179.574 308,186.5C 308.652,189.594 308.318,192.594 307,195.5C 301.293,205.748 295.46,215.915 289.5,226C 295.792,236.083 301.959,246.25 308,256.5C 309.487,266.181 305.321,271.181 295.5,271.5C 292.771,271.705 290.438,270.872 288.5,269C 284.128,259.756 279.628,250.59 275,241.5C 271,250.167 267,258.833 263,267.5C 258.004,271.895 252.504,272.562 246.5,269.5C 242.775,265.541 241.608,260.874 243,255.5C 247.178,248.472 251.345,241.472 255.5,234.5 Z"/></g>
    <g><path style="opacity:1" fill="#050406" d="M 326.5,179.5 C 337.505,179.333 348.505,179.5 359.5,180C 377.708,184.907 385.542,196.74 383,215.5C 381.097,221.734 377.93,227.234 373.5,232C 378,239.833 382.5,247.667 387,255.5C 389.207,264.145 386.04,269.145 377.5,270.5C 370.564,269.786 366.064,266.12 364,259.5C 361.667,252.5 359.333,245.5 357,238.5C 351.593,237.527 346.093,237.193 340.5,237.5C 340.945,246.94 340.445,256.274 339,265.5C 331.818,272.691 325.484,272.024 320,263.5C 319.333,237.833 319.333,212.167 320,186.5C 321.694,183.642 323.861,181.309 326.5,179.5 Z"/></g>
    <g><path style="opacity:1" fill="#040204" d="M 461.5,200.5 C 462.36,204.434 462.693,208.434 462.5,212.5C 461.309,226.422 453.976,234.922 440.5,238C 433.508,238.5 426.508,238.666 419.5,238.5C 419.943,247.608 419.443,256.608 418,265.5C 410.818,272.691 404.484,272.024 399,263.5C 398.333,238.167 398.333,212.833 399,187.5C 400.122,185.376 401.622,183.543 403.5,182C 409.395,180.876 415.395,180.376 421.5,180.5C 435.286,178.344 447.119,182.01 457,191.5C 459.038,194.243 460.538,197.243 461.5,200.5 Z"/></g>
    <g><path style="opacity:1" fill="#eaebeb" d="M 340.5,189.5 C 355.947,185.97 363.614,191.97 363.5,207.5C 364.09,223.565 356.423,229.898 340.5,226.5C 340.5,214.167 340.5,201.833 340.5,189.5 Z"/></g>
    <g><path style="opacity:1" fill="#c0d2da" d="M 432.5,189.5 C 428.5,189.5 424.5,189.5 420.5,189.5C 420.5,202.5 420.5,215.5 420.5,228.5C 419.504,215.344 419.171,202.01 419.5,188.5C 424.032,188.182 428.366,188.515 432.5,189.5 Z"/></g>
    <g><path style="opacity:1" fill="#b1aaa9" d="M 463.5,189.5 C 464.488,194.64 464.821,199.974 464.5,205.5C 463.833,207.833 463.167,210.167 462.5,212.5C 462.693,208.434 462.36,204.434 461.5,200.5C 462.117,200.611 462.617,200.944 463,201.5C 463.499,197.514 463.666,193.514 463.5,189.5 Z"/></g>
    <g><path style="opacity:1" fill="#ebeceb" d="M 432.5,189.5 C 437.305,190.132 440.472,192.799 442,197.5C 444.458,206.43 443.791,215.096 440,223.5C 438.048,225.894 435.548,227.394 432.5,228C 428.514,228.499 424.514,228.666 420.5,228.5C 420.5,215.5 420.5,202.5 420.5,189.5C 424.5,189.5 428.5,189.5 432.5,189.5 Z"/></g>
    <g><path style="opacity:1" fill="#eaddd0" d="M 245.5,181.5 C 242.676,185.36 241.842,189.693 243,194.5C 248.967,204.935 254.801,215.435 260.5,226C 258.986,228.993 257.319,231.826 255.5,234.5C 255.108,231.052 255.775,227.886 257.5,225C 251.342,215.549 245.842,205.715 241,195.5C 240.342,191.428 240.675,187.428 242,183.5C 242.816,182.177 243.983,181.511 245.5,181.5 Z"/></g>
    <g><path style="opacity:1" fill="#080609" d="M 471.5,245.5 C 484.615,246.747 488.782,253.413 484,265.5C 476.259,272.632 469.259,271.966 463,263.5C 460.76,254.983 463.594,248.983 471.5,245.5 Z"/></g>
    <g><path style="opacity:1" fill="#9a9a9a" d="M 158.5,321.5 C 274.354,322.826 390.354,322.826 506.5,321.5C 505.737,322.268 504.737,322.768 503.5,323C 387.832,323.833 272.165,323.667 156.5,322.5C 156.957,321.702 157.624,321.369 158.5,321.5 Z"/></g>
    <g><path style="opacity:1" fill="#000a18" d="M 133.5,322.5 C 130.659,326.18 127.993,330.014 125.5,334C 126.939,334.991 127.939,336.324 128.5,338C 185.335,338.167 242.001,338.667 298.5,339.5C 298.167,339.5 297.833,339.5 297.5,339.5C 237.499,339.667 177.499,339.5 117.5,339C 118.252,338.329 118.586,337.496 118.5,336.5C 123.5,331.833 128.5,327.167 133.5,322.5 Z"/></g>
    <g><path style="opacity:1" fill="#125273" d="M 118.5,336.5 C 118.586,337.496 118.252,338.329 117.5,339C 177.499,339.5 237.499,339.667 297.5,339.5C 297.5,339.833 297.5,340.167 297.5,340.5C 259.5,340.5 221.5,340.5 183.5,340.5C 161.167,340.5 138.833,340.5 116.5,340.5C 116.229,338.62 116.896,337.287 118.5,336.5 Z"/></g>
    <g><path style="opacity:1" fill="#2278b2" d="M 183.5,340.5 C 221.5,340.5 259.5,340.5 297.5,340.5C 297.5,346.167 297.5,351.833 297.5,357.5C 297.167,357.5 296.833,357.5 296.5,357.5C 294.167,357.5 291.833,357.5 289.5,357.5C 291.556,356.784 293.723,356.117 296,355.5C 296.499,351.514 296.666,347.514 296.5,343.5C 261.182,341.506 225.516,340.84 189.5,341.5C 187.265,341.795 185.265,341.461 183.5,340.5 Z"/></g>
    <g><path style="opacity:1" fill="#168bdd" d="M 296.5,343.5 C 296.666,347.514 296.499,351.514 296,355.5C 293.723,356.117 291.556,356.784 289.5,357.5C 288.539,359.265 288.205,361.265 288.5,363.5C 283.107,362.818 277.773,361.818 272.5,360.5C 272.818,365.032 272.485,369.366 271.5,373.5C 271.5,368.167 271.5,362.833 271.5,357.5C 271.5,356.5 271.5,355.5 271.5,354.5C 264.825,354.666 258.158,354.5 251.5,354C 249.109,352.965 246.776,352.798 244.5,353.5C 243.305,351.703 241.638,350.703 239.5,350.5C 239.64,348.876 238.973,347.71 237.5,347C 232.816,346.65 228.149,346.15 223.5,345.5C 216.796,346.22 210.129,345.72 203.5,344C 232.681,343.805 261.848,343.305 291,342.5C 292.878,342.696 294.712,343.029 296.5,343.5 Z"/></g>
    <g><path style="opacity:1" fill="#1a8bd5" d="M 189.5,341.5 C 225.516,340.84 261.182,341.506 296.5,343.5C 294.712,343.029 292.878,342.696 291,342.5C 261.848,343.305 232.681,343.805 203.5,344C 210.129,345.72 216.796,346.22 223.5,345.5C 228.149,346.15 232.816,346.65 237.5,347C 238.973,347.71 239.64,348.876 239.5,350.5C 241.638,350.703 243.305,351.703 244.5,353.5C 246.776,352.798 249.109,352.965 251.5,354C 258.158,354.5 264.825,354.666 271.5,354.5C 271.5,355.5 271.5,356.5 271.5,357.5C 266.167,357.5 260.833,357.5 255.5,357.5C 255.5,362.833 255.5,368.167 255.5,373.5C 254.511,368.025 254.178,362.358 254.5,356.5C 237.188,353.006 219.855,349.506 202.5,346C 197.888,344.941 193.554,343.441 189.5,341.5 Z"/></g>
    <g><path style="opacity:1" fill="#226988" d="M 203.5,357.5 C 198.167,357.5 192.833,357.5 187.5,357.5C 187.5,362.833 187.5,368.167 187.5,373.5C 186.511,368.025 186.178,362.358 186.5,356.5C 192.358,356.178 198.025,356.511 203.5,357.5 Z"/></g>
    <g><path style="opacity:1" fill="#071927" d="M 16.5,84.5 C 16.5,195.167 16.5,305.833 16.5,416.5C 16.5,425.167 16.5,433.833 16.5,442.5C 107.5,442.5 198.5,442.5 289.5,442.5C 289.5,414.167 289.5,385.833 289.5,357.5C 291.833,357.5 294.167,357.5 296.5,357.5C 294.735,358.461 292.735,358.795 290.5,358.5C 290.517,387.208 290.517,415.708 290.5,444C 198.93,444.832 107.43,444.665 16,443.5C 15.1674,323.666 15.334,203.999 16.5,84.5 Z"/></g>
    <g><path style="opacity:1" fill="#185a85" d="M 289.5,357.5 C 289.5,385.833 289.5,414.167 289.5,442.5C 198.5,442.5 107.5,442.5 16.5,442.5C 16.5,433.833 16.5,425.167 16.5,416.5C 16.8333,416.5 17.1667,416.5 17.5,416.5C 17.5,416.833 17.5,417.167 17.5,417.5C 17.5,425.5 17.5,433.5 17.5,441.5C 107.833,441.5 198.167,441.5 288.5,441.5C 288.5,433.5 288.5,425.5 288.5,417.5C 288.5,416.833 288.5,416.167 288.5,415.5C 288.5,398.167 288.5,380.833 288.5,363.5C 288.205,361.265 288.539,359.265 289.5,357.5 Z"/></g>
    <g><path style="opacity:1" fill="#2688c8" d="M 17.5,417.5 C 17.8333,417.5 18.1667,417.5 18.5,417.5C 18.5,425.167 18.5,432.833 18.5,440.5C 108.167,440.5 197.833,440.5 287.5,440.5C 287.5,432.833 287.5,425.167 287.5,417.5C 287.833,417.5 288.167,417.5 288.5,417.5C 288.5,425.5 288.5,433.5 288.5,441.5C 198.167,441.5 107.833,441.5 17.5,441.5C 17.5,433.5 17.5,425.5 17.5,417.5 Z"/></g>
    <g><path style="opacity:1" fill="#148cdf" d="M 18.5,417.5 C 108.167,417.5 197.833,417.5 287.5,417.5C 287.5,425.167 287.5,432.833 287.5,440.5C 197.833,440.5 108.167,440.5 18.5,440.5C 18.5,432.833 18.5,425.167 18.5,417.5 Z"/></g>
    <g><path style="opacity:1" fill="#22a1ea" d="M 288.5,415.5 C 288.5,416.167 288.5,416.833 288.5,417.5C 288.167,417.5 287.833,417.5 287.5,417.5C 197.833,417.5 108.167,417.5 18.5,417.5C 18.1667,417.5 17.8333,417.5 17.5,417.5C 17.5,417.167 17.5,416.833 17.5,416.5C 107.904,416.831 198.237,416.497 288.5,415.5 Z"/></g>
    <g><path style="opacity:1" fill="#2f83ac" d="M 237.5,357.5 C 238.49,363.31 238.823,369.31 238.5,375.5C 232.402,376.117 226.735,375.45 221.5,373.5C 226.833,373.5 232.167,373.5 237.5,373.5C 237.5,368.167 237.5,362.833 237.5,357.5 Z"/></g>
    <g><path style="opacity:1" fill="#1a6380" d="M 203.5,357.5 C 204.489,362.975 204.822,368.642 204.5,374.5C 198.642,374.822 192.975,374.489 187.5,373.5C 192.833,373.5 198.167,373.5 203.5,373.5C 203.5,368.167 203.5,362.833 203.5,357.5 Z"/></g>
    <g><path style="opacity:1" fill="#125671" d="M 153.5,357.5 C 153.5,362.833 153.5,368.167 153.5,373.5C 158.833,373.5 164.167,373.5 169.5,373.5C 164.025,374.489 158.358,374.822 152.5,374.5C 152.178,368.642 152.511,362.975 153.5,357.5 Z"/></g>
    <g><path style="opacity:1" fill="#040911" d="M 271.5,357.5 C 271.5,362.833 271.5,368.167 271.5,373.5C 266.167,374.833 260.833,374.833 255.5,373.5C 255.5,368.167 255.5,362.833 255.5,357.5C 260.833,357.5 266.167,357.5 271.5,357.5 Z"/></g>
    <g><path style="opacity:1" fill="#010309" d="M 237.5,357.5 C 237.5,362.833 237.5,368.167 237.5,373.5C 232.167,373.5 226.833,373.5 221.5,373.5C 221.5,368.167 221.5,362.833 221.5,357.5C 226.833,357.5 232.167,357.5 237.5,357.5 Z"/></g>
    <g><path style="opacity:1" fill="#010309" d="M 203.5,357.5 C 203.5,362.833 203.5,368.167 203.5,373.5C 198.167,373.5 192.833,373.5 187.5,373.5C 187.5,368.167 187.5,362.833 187.5,357.5C 192.833,357.5 198.167,357.5 203.5,357.5 Z"/></g>
    <g><path style="opacity:1" fill="#010309" d="M 153.5,357.5 C 158.833,357.5 164.167,357.5 169.5,357.5C 169.5,362.833 169.5,368.167 169.5,373.5C 169.5,368.167 169.5,362.833 169.5,357.5C 164.167,357.5 158.833,357.5 153.5,357.5 Z"/></g>
    <g><path style="opacity:1" fill="#8b94a3" d="M 269.5,509.5 C 190.478,509.822 111.478,509.488 32.5,508.5C 24.6307,504.799 19.464,498.799 17,490.5C 16.5002,480.172 16.3335,469.839 16.5,459.5C 107.5,459.5 198.5,459.5 289.5,459.5C 289.666,468.839 289.5,478.173 289,487.5C 287.277,499.057 280.777,506.391 269.5,509.5 Z"/></g>
    <g><path style="opacity:1" fill="#5c626a" d="M 118.5,476.5 C 141.327,475.502 164.327,475.169 187.5,475.5C 187.823,481.69 187.49,487.69 186.5,493.5C 186.5,487.833 186.5,482.167 186.5,476.5C 163.833,476.5 141.167,476.5 118.5,476.5 Z"/></g>
    <g><path style="opacity:1" fill="#020305" d="M 118.5,476.5 C 141.167,476.5 163.833,476.5 186.5,476.5C 186.5,482.167 186.5,487.833 186.5,493.5C 163.833,493.5 141.167,493.5 118.5,493.5C 118.5,487.833 118.5,482.167 118.5,476.5 Z"/></g>
    <g><path style="opacity:1" fill="#646974" d="M 32.5,508.5 C 111.478,509.488 190.478,509.822 269.5,509.5C 191.668,510.666 113.668,510.832 35.5,510C 34.2625,509.768 33.2625,509.268 32.5,508.5 Z"/></g>
</svg>
