<svg width="26" height="25" viewBox="0 0 26 25" fill="none" xmlns="http://www.w3.org/2000/svg">
<path fill-rule="evenodd" clip-rule="evenodd" d="M3.40533 24.8587C3.93159 24.9534 4.46529 25.0007 5 25C6.68996 25.0023 8.34611 24.5266 9.77733 23.628C10.8093 23.8707 11.8893 24 13 24C20.096 24 26 18.7067 26 12C26 5.29333 20.096 0 13 0C5.904 0 0 5.29333 0 12C0 15.212 1.36667 18.116 3.56533 20.256C3.87467 20.5573 3.93467 20.8267 3.904 20.98C3.73922 21.8094 3.36568 22.5831 2.81867 23.228C2.70511 23.3621 2.62887 23.5237 2.59764 23.6966C2.56641 23.8695 2.58128 24.0476 2.64076 24.2129C2.70023 24.3782 2.80222 24.5249 2.93644 24.6383C3.07067 24.7517 3.23239 24.8277 3.40533 24.8587ZM8 10.5C7.60218 10.5 7.22064 10.658 6.93934 10.9393C6.65804 11.2206 6.5 11.6022 6.5 12C6.5 12.3978 6.65804 12.7794 6.93934 13.0607C7.22064 13.342 7.60218 13.5 8 13.5C8.39783 13.5 8.77936 13.342 9.06066 13.0607C9.34196 12.7794 9.5 12.3978 9.5 12C9.5 11.6022 9.34196 11.2206 9.06066 10.9393C8.77936 10.658 8.39783 10.5 8 10.5ZM11.5 12C11.5 11.6022 11.658 11.2206 11.9393 10.9393C12.2206 10.658 12.6022 10.5 13 10.5C13.3978 10.5 13.7794 10.658 14.0607 10.9393C14.342 11.2206 14.5 11.6022 14.5 12C14.5 12.3978 14.342 12.7794 14.0607 13.0607C13.7794 13.342 13.3978 13.5 13 13.5C12.6022 13.5 12.2206 13.342 11.9393 13.0607C11.658 12.7794 11.5 12.3978 11.5 12ZM18 10.5C17.6022 10.5 17.2206 10.658 16.9393 10.9393C16.658 11.2206 16.5 11.6022 16.5 12C16.5 12.3978 16.658 12.7794 16.9393 13.0607C17.2206 13.342 17.6022 13.5 18 13.5C18.3978 13.5 18.7794 13.342 19.0607 13.0607C19.342 12.7794 19.5 12.3978 19.5 12C19.5 11.6022 19.342 11.2206 19.0607 10.9393C18.7794 10.658 18.3978 10.5 18 10.5Z" fill="white"/>
</svg>
