<svg width="12" height="6" viewBox="0 0 12 6" fill="none" xmlns="http://www.w3.org/2000/svg">
<path fill-rule="evenodd" clip-rule="evenodd" d="M6.35018 5.85649C6.25643 5.95012 6.12935 6.00271 5.99685 6.00271C5.86435 6.00271 5.73726 5.95012 5.64351 5.85649L0.643513 0.856486C0.555192 0.761703 0.507111 0.636339 0.509397 0.506805C0.511682 0.377271 0.564157 0.25368 0.655766 0.162072C0.747374 0.0704629 0.870965 0.0179884 1.0005 0.0157029C1.13003 0.0134174 1.2554 0.0614994 1.35018 0.149819L5.99685 4.79649L10.6435 0.149819C10.7383 0.0614994 10.8637 0.0134174 10.9932 0.0157029C11.1227 0.0179884 11.2463 0.0704629 11.3379 0.162072C11.4295 0.25368 11.482 0.377271 11.4843 0.506805C11.4866 0.636339 11.4385 0.761703 11.3502 0.856486L6.35018 5.85649Z" fill="#ACB1C1"/>
</svg>
