<svg width="24" height="24" viewBox="0 0 24 24" fill="none" xmlns="http://www.w3.org/2000/svg">
<rect width="24" height="24" rx="12" fill="#5865F2"/>
<g clip-path="url(#clip0_66_4820)">
<path d="M16.1651 8.09438C15.3884 7.72911 14.5578 7.46365 13.6894 7.3125C13.5828 7.50627 13.4582 7.7669 13.3723 7.97424C12.4492 7.83472 11.5347 7.83472 10.6286 7.97424C10.5427 7.7669 10.4153 7.50627 10.3077 7.3125C9.4384 7.46365 8.60688 7.73009 7.8301 8.09631C6.26332 10.4758 5.83859 12.7962 6.05096 15.0837C7.09013 15.8636 8.0972 16.3374 9.08729 16.6474C9.33174 16.3093 9.54977 15.9498 9.73759 15.571C9.37988 15.4344 9.03726 15.2658 8.71354 15.0701C8.79942 15.0062 8.88343 14.9393 8.96459 14.8705C10.9391 15.7987 13.0844 15.7987 15.0354 14.8705C15.1175 14.9393 15.2015 15.0062 15.2864 15.0701C14.9617 15.2668 14.6182 15.4353 14.2605 15.572C14.4483 15.9498 14.6654 16.3102 14.9108 16.6483C15.9018 16.3383 16.9098 15.8646 17.949 15.0837C18.1982 12.4319 17.5233 10.1328 16.1651 8.09438ZM10.0066 13.6769C9.41386 13.6769 8.92778 13.1208 8.92778 12.4435C8.92778 11.7663 9.40348 11.2092 10.0066 11.2092C10.6097 11.2092 11.0958 11.7653 11.0854 12.4435C11.0863 13.1208 10.6097 13.6769 10.0066 13.6769ZM13.9934 13.6769C13.4006 13.6769 12.9146 13.1208 12.9146 12.4435C12.9146 11.7663 13.3902 11.2092 13.9934 11.2092C14.5965 11.2092 15.0826 11.7653 15.0722 12.4435C15.0722 13.1208 14.5965 13.6769 13.9934 13.6769Z" fill="white"/>
</g>
<defs>
<clipPath id="clip0_66_4820">
<rect width="12" height="9.375" fill="white" transform="translate(6 7.3125)"/>
</clipPath>
</defs>
</svg>
