<svg width="16" height="16" viewBox="0 0 16 16" fill="none" xmlns="http://www.w3.org/2000/svg">
<rect width="16" height="16" rx="8" fill="#5865F2"/>
<g clip-path="url(#clip0_66_4034)">
<path d="M10.7768 5.39625C10.2589 5.15274 9.70519 4.97577 9.1263 4.875C9.0552 5.00418 8.97214 5.17794 8.91488 5.31616C8.2995 5.22315 7.68978 5.22315 7.08572 5.31616C7.02846 5.17794 6.94352 5.00418 6.87179 4.875C6.29227 4.97577 5.73792 5.15339 5.22006 5.39754C4.17555 6.98387 3.8924 8.5308 4.03397 10.0558C4.72675 10.5757 5.39814 10.8916 6.05819 11.0983C6.22116 10.8728 6.36651 10.6332 6.49173 10.3807C6.25325 10.2896 6.02484 10.1772 5.80902 10.0467C5.86628 10.0041 5.92229 9.95953 5.97639 9.91367C7.29273 10.5324 8.72297 10.5324 10.0236 9.91367C10.0783 9.95953 10.1343 10.0041 10.1909 10.0467C9.97449 10.1778 9.74546 10.2902 9.50699 10.3813C9.6322 10.6332 9.77692 10.8735 9.94052 11.0989C10.6012 10.8922 11.2732 10.5764 11.966 10.0558C12.1321 8.28795 11.6822 6.75522 10.7768 5.39625ZM6.67106 9.11793C6.27591 9.11793 5.95185 8.74718 5.95185 8.29569C5.95185 7.84421 6.26899 7.47282 6.67106 7.47282C7.07314 7.47282 7.39719 7.84356 7.39027 8.29569C7.39089 8.74718 7.07314 9.11793 6.67106 9.11793ZM9.32891 9.11793C8.93376 9.11793 8.60971 8.74718 8.60971 8.29569C8.60971 7.84421 8.92683 7.47282 9.32891 7.47282C9.73098 7.47282 10.055 7.84356 10.0481 8.29569C10.0481 8.74718 9.73098 9.11793 9.32891 9.11793Z" fill="white"/>
</g>
<defs>
<clipPath id="clip0_66_4034">
<rect width="8" height="6.25" fill="white" transform="translate(4 4.875)"/>
</clipPath>
</defs>
</svg>
