<svg width="32" height="32" viewBox="0 0 32 32" fill="none" xmlns="http://www.w3.org/2000/svg">
<rect width="32" height="32" rx="16" fill="#5865F2"/>
<g clip-path="url(#clip0_66_7629)">
<path d="M21.5535 10.7925C20.5178 10.3055 19.4104 9.95154 18.2526 9.75C18.1104 10.0084 17.9443 10.3559 17.8298 10.6323C16.599 10.4463 15.3796 10.4463 14.1714 10.6323C14.0569 10.3559 13.887 10.0084 13.7436 9.75C12.5845 9.95154 11.4758 10.3068 10.4401 10.7951C8.3511 13.9677 7.78479 17.0616 8.06794 20.1115C9.4535 21.1514 10.7963 21.7831 12.1164 22.1965C12.4423 21.7457 12.733 21.2664 12.9835 20.7613C12.5065 20.5792 12.0497 20.3544 11.618 20.0935C11.7326 20.0082 11.8446 19.9191 11.9528 19.8273C14.5855 21.0649 17.4459 21.0649 20.0472 19.8273C20.1566 19.9191 20.2686 20.0082 20.3819 20.0935C19.949 20.3557 19.4909 20.5805 19.014 20.7626C19.2644 21.2664 19.5538 21.747 19.881 22.1978C21.2024 21.7844 22.5464 21.1527 23.932 20.1115C24.2642 16.5759 23.3644 13.5104 21.5535 10.7925ZM13.3421 18.2359C12.5518 18.2359 11.9037 17.4944 11.9037 16.5914C11.9037 15.6884 12.538 14.9456 13.3421 14.9456C14.1463 14.9456 14.7944 15.6871 14.7805 16.5914C14.7818 17.4944 14.1463 18.2359 13.3421 18.2359ZM18.6578 18.2359C17.8675 18.2359 17.2194 17.4944 17.2194 16.5914C17.2194 15.6884 17.8537 14.9456 18.6578 14.9456C19.462 14.9456 20.1101 15.6871 20.0962 16.5914C20.0962 17.4944 19.462 18.2359 18.6578 18.2359Z" fill="white"/>
</g>
<defs>
<clipPath id="clip0_66_7629">
<rect width="16" height="12.5" fill="white" transform="translate(8 9.75)"/>
</clipPath>
</defs>
</svg>
