<svg width="18" height="18" viewBox="0 0 18 18" fill="none" xmlns="http://www.w3.org/2000/svg">
<path d="M15.75 9.75H17.25C17.4489 9.75 17.6397 9.67098 17.7803 9.53033C17.921 9.38968 18 9.19891 18 9C18 8.80109 17.921 8.61032 17.7803 8.46967C17.6397 8.32902 17.4489 8.25 17.25 8.25H15.75C15.5511 8.25 15.3603 8.32902 15.2197 8.46967C15.079 8.61032 15 8.80109 15 9C15 9.19891 15.079 9.38968 15.2197 9.53033C15.3603 9.67098 15.5511 9.75 15.75 9.75ZM9 3C9 2.80109 9.07902 2.61032 9.21967 2.46967C9.36032 2.32902 9.55109 2.25 9.75 2.25H17.25C17.4489 2.25 17.6397 2.32902 17.7803 2.46967C17.921 2.61032 18 2.80109 18 3C18 3.19891 17.921 3.38968 17.7803 3.53033C17.6397 3.67098 17.4489 3.75 17.25 3.75H9.75C9.55109 3.75 9.36032 3.67098 9.21967 3.53033C9.07902 3.38968 9 3.19891 9 3ZM9 15C9 14.8011 9.07902 14.6103 9.21967 14.4697C9.36032 14.329 9.55109 14.25 9.75 14.25H17.25C17.4489 14.25 17.6397 14.329 17.7803 14.4697C17.921 14.6103 18 14.8011 18 15C18 15.1989 17.921 15.3897 17.7803 15.5303C17.6397 15.671 17.4489 15.75 17.25 15.75H9.75C9.55109 15.75 9.36032 15.671 9.21967 15.5303C9.07902 15.3897 9 15.1989 9 15ZM0.75 3.75H2.25C2.44891 3.75 2.63968 3.67098 2.78033 3.53033C2.92098 3.38968 3 3.19891 3 3C3 2.80109 2.92098 2.61032 2.78033 2.46967C2.63968 2.32902 2.44891 2.25 2.25 2.25H0.75C0.551088 2.25 0.360322 2.32902 0.21967 2.46967C0.0790175 2.61032 0 2.80109 0 3C0 3.19891 0.0790175 3.38968 0.21967 3.53033C0.360322 3.67098 0.551088 3.75 0.75 3.75ZM2.25 15.75H0.75C0.551088 15.75 0.360322 15.671 0.21967 15.5303C0.0790175 15.3897 0 15.1989 0 15C0 14.8011 0.0790175 14.6103 0.21967 14.4697C0.360322 14.329 0.551088 14.25 0.75 14.25H2.25C2.44891 14.25 2.63968 14.329 2.78033 14.4697C2.92098 14.6103 3 14.8011 3 15C3 15.1989 2.92098 15.3897 2.78033 15.5303C2.63968 15.671 2.44891 15.75 2.25 15.75ZM0 9C0 8.80109 0.0790175 8.61032 0.21967 8.46967C0.360322 8.32902 0.551088 8.25 0.75 8.25H8.25C8.44891 8.25 8.63968 8.32902 8.78033 8.46967C8.92098 8.61032 9 8.80109 9 9C9 9.19891 8.92098 9.38968 8.78033 9.53033C8.63968 9.67098 8.44891 9.75 8.25 9.75H0.75C0.551088 9.75 0.360322 9.67098 0.21967 9.53033C0.0790175 9.38968 0 9.19891 0 9ZM6 0.75C5.40326 0.75 4.83097 0.987053 4.40901 1.40901C3.98705 1.83097 3.75 2.40326 3.75 3C3.75 3.59674 3.98705 4.16903 4.40901 4.59099C4.83097 5.01295 5.40326 5.25 6 5.25C6.59674 5.25 7.16903 5.01295 7.59099 4.59099C8.01295 4.16903 8.25 3.59674 8.25 3C8.25 2.40326 8.01295 1.83097 7.59099 1.40901C7.16903 0.987053 6.59674 0.75 6 0.75ZM9.75 9C9.75 8.40326 9.98705 7.83097 10.409 7.40901C10.831 6.98705 11.4033 6.75 12 6.75C12.5967 6.75 13.169 6.98705 13.591 7.40901C14.0129 7.83097 14.25 8.40326 14.25 9C14.25 9.59674 14.0129 10.169 13.591 10.591C13.169 11.0129 12.5967 11.25 12 11.25C11.4033 11.25 10.831 11.0129 10.409 10.591C9.98705 10.169 9.75 9.59674 9.75 9ZM6 12.75C5.40326 12.75 4.83097 12.9871 4.40901 13.409C3.98705 13.831 3.75 14.4033 3.75 15C3.75 15.5967 3.98705 16.169 4.40901 16.591C4.83097 17.0129 5.40326 17.25 6 17.25C6.59674 17.25 7.16903 17.0129 7.59099 16.591C8.01295 16.169 8.25 15.5967 8.25 15C8.25 14.4033 8.01295 13.831 7.59099 13.409C7.16903 12.9871 6.59674 12.75 6 12.75Z" fill="#606885"/>
</svg>
