<svg width="24" height="24" viewBox="0 0 24 24" fill="none" xmlns="http://www.w3.org/2000/svg">
<rect width="24" height="24" rx="12" fill="#3052FF"/>
<path fill-rule="evenodd" clip-rule="evenodd" d="M9.5 8.5C9.5 7.83696 9.76339 7.20107 10.2322 6.73223C10.7011 6.26339 11.337 6 12 6C12.663 6 13.2989 6.26339 13.7678 6.73223C14.2366 7.20107 14.5 7.83696 14.5 8.5C14.5 9.16304 14.2366 9.79893 13.7678 10.2678C13.2989 10.7366 12.663 11 12 11C11.337 11 10.7011 10.7366 10.2322 10.2678C9.76339 9.79893 9.5 9.16304 9.5 8.5ZM14.5 10.5C14.5 9.96957 14.7107 9.46086 15.0858 9.08579C15.4609 8.71071 15.9696 8.5 16.5 8.5C17.0304 8.5 17.5391 8.71071 17.9142 9.08579C18.2893 9.46086 18.5 9.96957 18.5 10.5C18.5 11.0304 18.2893 11.5391 17.9142 11.9142C17.5391 12.2893 17.0304 12.5 16.5 12.5C15.9696 12.5 15.4609 12.2893 15.0858 11.9142C14.7107 11.5391 14.5 11.0304 14.5 10.5ZM5.5 10.5C5.5 9.96957 5.71071 9.46086 6.08579 9.08579C6.46086 8.71071 6.96957 8.5 7.5 8.5C8.03043 8.5 8.53914 8.71071 8.91421 9.08579C9.28929 9.46086 9.5 9.96957 9.5 10.5C9.5 11.0304 9.28929 11.5391 8.91421 11.9142C8.53914 12.2893 8.03043 12.5 7.5 12.5C6.96957 12.5 6.46086 12.2893 6.08579 11.9142C5.71071 11.5391 5.5 11.0304 5.5 10.5ZM8.20667 14.078C8.6133 13.4407 9.17405 12.9162 9.83708 12.553C10.5001 12.1898 11.244 11.9996 12 12C12.6332 11.9994 13.2594 12.1326 13.8376 12.3908C14.4158 12.649 14.9329 13.0264 15.3552 13.4982C15.7774 13.9701 16.0952 14.5259 16.2878 15.1291C16.4804 15.7323 16.5434 16.3694 16.4727 16.9987C16.464 17.0768 16.4371 17.1519 16.394 17.2177C16.3509 17.2835 16.2929 17.3382 16.2247 17.3773C14.939 18.115 13.4822 18.5021 12 18.5C10.4633 18.5 9.02 18.092 7.77533 17.3773C7.70713 17.3382 7.64912 17.2835 7.60603 17.2177C7.56294 17.1519 7.53598 17.0768 7.52733 16.9987C7.41537 15.9764 7.65497 14.9465 8.20667 14.0787V14.078Z" fill="white"/>
<path d="M7.38805 13.5C6.73056 14.5149 6.42422 15.7175 6.51605 16.9233C6.11572 16.8626 5.72199 16.7644 5.34005 16.63L5.26339 16.6033C5.19498 16.5791 5.13509 16.5355 5.09095 16.4778C5.04682 16.4202 5.02034 16.351 5.01472 16.2787L5.00805 16.198C4.98112 15.8633 5.02189 15.5266 5.12792 15.208C5.23396 14.8894 5.40308 14.5955 5.6252 14.3437C5.84733 14.0919 6.1179 13.8874 6.42077 13.7424C6.72365 13.5975 7.05262 13.515 7.38805 13.5ZM17.4841 16.9233C17.5759 15.7175 17.2696 14.5149 16.6121 13.5C16.9475 13.515 17.2765 13.5975 17.5793 13.7424C17.8822 13.8874 18.1528 14.0919 18.3749 14.3437C18.597 14.5955 18.7662 14.8894 18.8722 15.208C18.9782 15.5266 19.019 15.8633 18.9921 16.198L18.9854 16.2787C18.9796 16.3509 18.9531 16.42 18.909 16.4775C18.8649 16.5349 18.805 16.5784 18.7367 16.6027L18.6601 16.6293C18.2821 16.7627 17.8894 16.862 17.4841 16.9233Z" fill="white"/>
</svg>
