<svg width="20" height="18" viewBox="0 0 20 18" fill="none" xmlns="http://www.w3.org/2000/svg">
<path fill-rule="evenodd" clip-rule="evenodd" d="M9.02934 0.96934C9.16979 1.10997 9.24868 1.30059 9.24868 1.49934C9.24868 1.69809 9.16979 1.88871 9.02934 2.02934L2.80934 8.24934H18.9993C19.1983 8.24934 19.389 8.32836 19.5297 8.46901C19.6703 8.60966 19.7493 8.80043 19.7493 8.99934C19.7493 9.19825 19.6703 9.38902 19.5297 9.52967C19.389 9.67032 19.1983 9.74934 18.9993 9.74934H2.80934L9.02934 15.9693C9.10303 16.038 9.16213 16.1208 9.20312 16.2128C9.24411 16.3048 9.26616 16.4041 9.26793 16.5048C9.26971 16.6055 9.25118 16.7055 9.21346 16.7989C9.17574 16.8923 9.1196 16.9772 9.04838 17.0484C8.97716 17.1196 8.89233 17.1757 8.79894 17.2135C8.70555 17.2512 8.60552 17.2697 8.50482 17.2679C8.40411 17.2662 8.3048 17.2441 8.2128 17.2031C8.1208 17.1621 8.038 17.103 7.96934 17.0293L0.46934 9.52934C0.32889 9.38871 0.25 9.19809 0.25 8.99934C0.25 8.80059 0.32889 8.60997 0.46934 8.46934L7.96934 0.96934C8.10997 0.82889 8.30059 0.75 8.49934 0.75C8.69809 0.75 8.88871 0.82889 9.02934 0.96934Z" fill="#606885"/>
</svg>
