<svg width="16" height="18" viewBox="0 0 16 18" fill="none" xmlns="http://www.w3.org/2000/svg">
<path fill-rule="evenodd" clip-rule="evenodd" d="M3.25 2.125C2.91848 2.125 2.60054 2.2567 2.36612 2.49112C2.1317 2.72554 2 3.04348 2 3.375V14.625C2 14.9565 2.1317 15.2745 2.36612 15.5089C2.60054 15.7433 2.91848 15.875 3.25 15.875H8.25C8.58152 15.875 8.89946 15.7433 9.13388 15.5089C9.3683 15.2745 9.5 14.9565 9.5 14.625V11.5C9.5 11.3342 9.56585 11.1753 9.68306 11.0581C9.80027 10.9408 9.95924 10.875 10.125 10.875C10.2908 10.875 10.4497 10.9408 10.5669 11.0581C10.6842 11.1753 10.75 11.3342 10.75 11.5V14.625C10.75 15.288 10.4866 15.9239 10.0178 16.3928C9.54893 16.8616 8.91304 17.125 8.25 17.125H3.25C2.58696 17.125 1.95107 16.8616 1.48223 16.3928C1.01339 15.9239 0.75 15.288 0.75 14.625V3.375C0.75 2.71196 1.01339 2.07607 1.48223 1.60723C1.95107 1.13839 2.58696 0.875 3.25 0.875H8.25C8.91304 0.875 9.54893 1.13839 10.0178 1.60723C10.4866 2.07607 10.75 2.71196 10.75 3.375V6.5C10.75 6.66576 10.6842 6.82473 10.5669 6.94194C10.4497 7.05915 10.2908 7.125 10.125 7.125C9.95924 7.125 9.80027 7.05915 9.68306 6.94194C9.56585 6.82473 9.5 6.66576 9.5 6.5V3.375C9.5 3.04348 9.3683 2.72554 9.13388 2.49112C8.89946 2.2567 8.58152 2.125 8.25 2.125H3.25ZM12.1833 6.05833C12.3005 5.94129 12.4594 5.87555 12.625 5.87555C12.7906 5.87555 12.9495 5.94129 13.0667 6.05833L15.5667 8.55833C15.6837 8.67552 15.7494 8.83437 15.7494 9C15.7494 9.16563 15.6837 9.32448 15.5667 9.44167L13.0667 11.9417C13.0094 12.0031 12.9404 12.0523 12.8638 12.0865C12.7871 12.1206 12.7044 12.139 12.6204 12.1405C12.5365 12.142 12.4532 12.1265 12.3753 12.0951C12.2975 12.0637 12.2268 12.0169 12.1675 11.9575C12.1081 11.8982 12.0613 11.8275 12.0299 11.7497C11.9985 11.6718 11.983 11.5885 11.9845 11.5046C11.986 11.4206 12.0044 11.3379 12.0385 11.2612C12.0727 11.1846 12.1219 11.1156 12.1833 11.0583L13.6167 9.625H4.5C4.33424 9.625 4.17527 9.55915 4.05806 9.44194C3.94085 9.32473 3.875 9.16576 3.875 9C3.875 8.83424 3.94085 8.67527 4.05806 8.55806C4.17527 8.44085 4.33424 8.375 4.5 8.375H13.6167L12.1833 6.94167C12.0663 6.82448 12.0005 6.66563 12.0005 6.5C12.0005 6.33437 12.0663 6.17552 12.1833 6.05833Z" fill="black"/>
</svg>
