<svg width="18" height="18" viewBox="0 0 18 18" fill="none" xmlns="http://www.w3.org/2000/svg">
<path fill-rule="evenodd" clip-rule="evenodd" d="M7.75 2.12409C7.01131 2.12409 6.27986 2.26959 5.59741 2.55227C4.91495 2.83495 4.29485 3.24929 3.77252 3.77162C3.25019 4.29395 2.83586 4.91404 2.55318 5.5965C2.27049 6.27896 2.125 7.01041 2.125 7.74909C2.125 8.48778 2.27049 9.21923 2.55318 9.90169C2.83586 10.5841 3.25019 11.2042 3.77252 11.7266C4.29485 12.2489 4.91495 12.6632 5.59741 12.9459C6.27986 13.2286 7.01131 13.3741 7.75 13.3741C9.24184 13.3741 10.6726 12.7815 11.7275 11.7266C12.7824 10.6717 13.375 9.24094 13.375 7.74909C13.375 6.25725 12.7824 4.82651 11.7275 3.77162C10.6726 2.71673 9.24184 2.12409 7.75 2.12409ZM0.875 7.74909C0.875146 6.64501 1.1412 5.5572 1.65066 4.57768C2.16012 3.59816 2.89799 2.75574 3.80186 2.12169C4.70574 1.48765 5.74902 1.08061 6.84347 0.935031C7.93791 0.789447 9.05132 0.909593 10.0895 1.28531C11.1277 1.66102 12.0601 2.28125 12.808 3.09353C13.5558 3.90581 14.0969 4.88624 14.3857 5.95189C14.6745 7.01755 14.7023 8.13708 14.4669 9.21578C14.2315 10.2945 13.7398 11.3006 13.0333 12.1491L16.9417 16.0574C17.0031 16.1146 17.0523 16.1836 17.0865 16.2603C17.1206 16.337 17.139 16.4197 17.1405 16.5037C17.142 16.5876 17.1265 16.6709 17.0951 16.7488C17.0637 16.8266 17.0169 16.8973 16.9575 16.9566C16.8982 17.016 16.8275 17.0628 16.7497 17.0942C16.6718 17.1256 16.5885 17.1411 16.5046 17.1396C16.4206 17.1381 16.3379 17.1197 16.2612 17.0856C16.1846 17.0514 16.1156 17.0022 16.0583 16.9408L12.15 13.0324C11.146 13.8687 9.92452 14.4015 8.6286 14.5685C7.33268 14.7355 6.01602 14.5297 4.83284 13.9753C3.64967 13.4208 2.64899 12.5407 1.94803 11.438C1.24707 10.3353 0.874856 9.05573 0.875 7.74909Z" fill="#606885"/>
</svg>
