<svg width="18" height="16" viewBox="0 0 18 16" fill="none" xmlns="http://www.w3.org/2000/svg">
<path fill-rule="evenodd" clip-rule="evenodd" d="M16.9129 0.62594C17.0784 0.736278 17.1933 0.907831 17.2323 1.10287C17.2713 1.2979 17.2312 1.50044 17.1209 1.66594L8.12092 15.1659C8.05933 15.2582 7.97806 15.3356 7.88295 15.3927C7.78784 15.4497 7.68125 15.485 7.57088 15.4959C7.46051 15.5068 7.34909 15.4931 7.24465 15.4557C7.14021 15.4184 7.04536 15.3584 6.96692 15.2799L0.966917 9.27994C0.834437 9.13776 0.762314 8.94972 0.765742 8.75542C0.76917 8.56112 0.847882 8.37573 0.985295 8.23832C1.12271 8.10091 1.30809 8.02219 1.50239 8.01876C1.6967 8.01534 1.88474 8.08746 2.02692 8.21994L7.37992 13.5729L15.8729 0.83394C15.9833 0.668455 16.1548 0.553574 16.3498 0.514568C16.5449 0.475561 16.7474 0.515622 16.9129 0.62594Z" fill="white"/>
</svg>
