<svg width="192" height="192" viewBox="0 0 192 192" fill="none" xmlns="http://www.w3.org/2000/svg">
<g filter="url(#filter0_d_66_9148)">
<circle cx="96" cy="92" r="16" fill="#3052FF"/>
</g>
<path fill-rule="evenodd" clip-rule="evenodd" d="M103.913 84.6259C104.078 84.7363 104.193 84.9078 104.232 85.1029C104.271 85.2979 104.231 85.5004 104.121 85.6659L95.1209 99.1659C95.0593 99.2582 94.9781 99.3356 94.8829 99.3927C94.7878 99.4497 94.6813 99.485 94.5709 99.4959C94.4605 99.5068 94.3491 99.4931 94.2446 99.4557C94.1402 99.4184 94.0454 99.3584 93.9669 99.2799L87.9669 93.2799C87.8344 93.1378 87.7623 92.9497 87.7657 92.7554C87.7692 92.5611 87.8479 92.3757 87.9853 92.2383C88.1227 92.1009 88.3081 92.0222 88.5024 92.0188C88.6967 92.0153 88.8847 92.0875 89.0269 92.2199L94.3799 97.5729L102.873 84.8339C102.983 84.6685 103.155 84.5536 103.35 84.5146C103.545 84.4756 103.747 84.5156 103.913 84.6259Z" fill="white"/>
<defs>
<filter id="filter0_d_66_9148" x="0" y="0" width="192" height="192" filterUnits="userSpaceOnUse" color-interpolation-filters="sRGB">
<feFlood flood-opacity="0" result="BackgroundImageFix"/>
<feColorMatrix in="SourceAlpha" type="matrix" values="0 0 0 0 0 0 0 0 0 0 0 0 0 0 0 0 0 0 127 0" result="hardAlpha"/>
<feOffset dy="4"/>
<feGaussianBlur stdDeviation="40"/>
<feComposite in2="hardAlpha" operator="out"/>
<feColorMatrix type="matrix" values="0 0 0 0 0 0 0 0 0 0 0 0 0 0 0 0 0 0 0.06 0"/>
<feBlend mode="normal" in2="BackgroundImageFix" result="effect1_dropShadow_66_9148"/>
<feBlend mode="normal" in="SourceGraphic" in2="effect1_dropShadow_66_9148" result="shape"/>
</filter>
</defs>
</svg>
