<svg width="24" height="24" viewBox="0 0 24 24" fill="none" xmlns="http://www.w3.org/2000/svg">
<rect width="24" height="24" rx="12" fill="#F12E45"/>
<g clip-path="url(#clip0_66_4833)">
<path d="M12 6C15.312 6 18 8.688 18 12C18 15.312 15.312 18 12 18C8.688 18 6 15.312 6 12C6 8.688 8.688 6 12 6ZM12 7.584C9.552 7.584 7.584 9.552 7.584 12C7.584 14.448 9.552 16.416 12 16.416C14.448 16.416 16.416 14.448 16.416 12C16.416 9.552 14.448 7.584 12 7.584ZM13.488 12.24C14.1773 12.24 14.736 12.7987 14.736 13.488C14.736 14.1773 14.1773 14.736 13.488 14.736C12.7987 14.736 12.24 14.1773 12.24 13.488C12.24 12.7987 12.7987 12.24 13.488 12.24ZM10.512 12.24C11.2013 12.24 11.76 12.7987 11.76 13.488C11.76 14.1773 11.2013 14.736 10.512 14.736C9.82275 14.736 9.264 14.1773 9.264 13.488C9.264 12.7987 9.82275 12.24 10.512 12.24ZM13.488 9.264C14.1773 9.264 14.736 9.82275 14.736 10.512C14.736 11.2013 14.1773 11.76 13.488 11.76C12.7987 11.76 12.24 11.2013 12.24 10.512C12.24 9.82275 12.7987 9.264 13.488 9.264ZM10.512 9.264C11.2013 9.264 11.76 9.82275 11.76 10.512C11.76 11.2013 11.2013 11.76 10.512 11.76C9.82275 11.76 9.264 11.2013 9.264 10.512C9.264 9.82275 9.82275 9.264 10.512 9.264Z" fill="white"/>
</g>
<defs>
<clipPath id="clip0_66_4833">
<rect width="12" height="12" fill="white" transform="translate(6 6)"/>
</clipPath>
</defs>
</svg>
