<svg width="32" height="32" viewBox="0 0 32 32" fill="none" xmlns="http://www.w3.org/2000/svg">
<rect width="32" height="32" rx="16" fill="#F12E45"/>
<g clip-path="url(#clip0_66_7637)">
<path d="M16 8C20.416 8 24 11.584 24 16C24 20.416 20.416 24 16 24C11.584 24 8 20.416 8 16C8 11.584 11.584 8 16 8ZM16 10.112C12.736 10.112 10.112 12.736 10.112 16C10.112 19.264 12.736 21.888 16 21.888C19.264 21.888 21.888 19.264 21.888 16C21.888 12.736 19.264 10.112 16 10.112ZM17.984 16.32C18.903 16.32 19.648 17.065 19.648 17.984C19.648 18.903 18.903 19.648 17.984 19.648C17.065 19.648 16.32 18.903 16.32 17.984C16.32 17.065 17.065 16.32 17.984 16.32ZM14.016 16.32C14.935 16.32 15.68 17.065 15.68 17.984C15.68 18.903 14.935 19.648 14.016 19.648C13.097 19.648 12.352 18.903 12.352 17.984C12.352 17.065 13.097 16.32 14.016 16.32ZM17.984 12.352C18.903 12.352 19.648 13.097 19.648 14.016C19.648 14.935 18.903 15.68 17.984 15.68C17.065 15.68 16.32 14.935 16.32 14.016C16.32 13.097 17.065 12.352 17.984 12.352ZM14.016 12.352C14.935 12.352 15.68 13.097 15.68 14.016C15.68 14.935 14.935 15.68 14.016 15.68C13.097 15.68 12.352 14.935 12.352 14.016C12.352 13.097 13.097 12.352 14.016 12.352Z" fill="white"/>
</g>
<defs>
<clipPath id="clip0_66_7637">
<rect width="16" height="16" fill="white" transform="translate(8 8)"/>
</clipPath>
</defs>
</svg>
