<svg width="24" height="24" viewBox="0 0 24 24" fill="none" xmlns="http://www.w3.org/2000/svg">
<rect width="24" height="24" rx="12" fill="#55ACEE"/>
<path d="M18 8.29735C17.5585 8.49222 17.084 8.62393 16.586 8.68316C17.0943 8.37991 17.4846 7.89975 17.6685 7.32763C17.1928 7.60838 16.6659 7.81229 16.1051 7.9222C15.656 7.44601 15.0162 7.14844 14.3081 7.14844C12.9484 7.14844 11.8461 8.24546 11.8461 9.59855C11.8461 9.79058 11.8679 9.97759 11.9098 10.1569C9.86371 10.0547 8.04964 9.07928 6.83538 7.59693C6.62346 7.95881 6.50205 8.3797 6.50205 8.82872C6.50205 9.67875 6.93673 10.4287 7.59732 10.8681C7.19372 10.8554 6.81413 10.7451 6.48217 10.5616C6.48199 10.5719 6.48199 10.5821 6.48199 10.5924C6.48199 11.7796 7.33063 12.7699 8.45689 12.9949C8.25028 13.0509 8.03279 13.0809 7.80823 13.0809C7.6496 13.0809 7.49536 13.0655 7.34507 13.0369C7.65833 14.0103 8.56754 14.7187 9.64486 14.7385C8.80228 15.3956 7.74072 15.7873 6.58729 15.7873C6.38859 15.7873 6.1926 15.7758 6 15.7531C7.08952 16.4483 8.38363 16.8539 9.77395 16.8539C14.3023 16.8539 16.7786 13.1204 16.7786 9.88266C16.7786 9.77643 16.7763 9.67076 16.7715 9.5657C17.2525 9.22025 17.6699 8.7887 18 8.29735Z" fill="white"/>
</svg>
