<svg width="32" height="32" viewBox="0 0 32 32" fill="none" xmlns="http://www.w3.org/2000/svg">
<rect width="32" height="32" rx="16" fill="#55ACEE"/>
<path d="M24 11.0631C23.4113 11.323 22.7787 11.4986 22.1146 11.5776C22.7924 11.1732 23.3129 10.533 23.558 9.77017C22.9237 10.1445 22.2212 10.4164 21.4735 10.5629C20.8747 9.92801 20.0216 9.53125 19.0774 9.53125C17.2645 9.53125 15.7948 10.9939 15.7948 12.7981C15.7948 13.0541 15.8238 13.3035 15.8798 13.5425C13.1516 13.4063 10.7329 12.1057 9.11384 10.1292C8.83128 10.6117 8.6694 11.1729 8.6694 11.7716C8.6694 12.905 9.24897 13.9049 10.1298 14.4908C9.59163 14.4738 9.08551 14.3269 8.64289 14.0822C8.64266 14.0958 8.64266 14.1095 8.64266 14.1232C8.64266 15.7061 9.77417 17.0265 11.2758 17.3266C11.0004 17.4012 10.7104 17.4411 10.411 17.4411C10.1995 17.4411 9.99381 17.4207 9.79342 17.3825C10.2111 18.6805 11.4234 19.625 12.8598 19.6513C11.7364 20.5275 10.321 21.0498 8.78306 21.0498C8.51812 21.0498 8.25681 21.0343 8 21.0042C9.45269 21.9311 11.1782 22.4719 13.0319 22.4719C19.0698 22.4719 22.3715 17.4939 22.3715 13.1769C22.3715 13.0352 22.3683 12.8943 22.362 12.7543C23.0033 12.2937 23.5599 11.7183 24 11.0631Z" fill="white"/>
</svg>
