<svg width="16" height="16" viewBox="0 0 16 16" fill="none" xmlns="http://www.w3.org/2000/svg">
<rect width="16" height="16" rx="8" fill="#55ACEE"/>
<path d="M12 5.53157C11.7057 5.66148 11.3893 5.74929 11.0573 5.78878C11.3962 5.58661 11.6564 5.2665 11.779 4.88508C11.4619 5.07225 11.1106 5.2082 10.7367 5.28147C10.4373 4.96401 10.0108 4.76562 9.53872 4.76562C8.63227 4.76562 7.89738 5.49697 7.89738 6.39903C7.89738 6.52705 7.91192 6.65173 7.9399 6.77127C6.57581 6.70316 5.36643 6.05286 4.55692 5.06462C4.41564 5.30587 4.3347 5.58646 4.3347 5.88581C4.3347 6.4525 4.62449 6.95247 5.06488 7.24538C4.79582 7.23691 4.54276 7.16343 4.32145 7.04109C4.32133 7.0479 4.32133 7.05475 4.32133 7.06162C4.32133 7.85305 4.88708 8.51325 5.63792 8.66328C5.50019 8.70062 5.35519 8.72057 5.20549 8.72057C5.09973 8.72057 4.99691 8.71035 4.89671 8.69127C5.10556 9.34023 5.71169 9.81248 6.42991 9.82567C5.86819 10.2638 5.16048 10.5249 4.39153 10.5249C4.25906 10.5249 4.1284 10.5172 4 10.5021C4.72635 10.9655 5.58909 11.2359 6.51597 11.2359C9.53489 11.2359 11.1857 8.74695 11.1857 6.58844C11.1857 6.51762 11.1842 6.44717 11.181 6.37713C11.5017 6.14683 11.7799 5.85914 12 5.53157Z" fill="white"/>
</svg>
