<svg width="32" height="32" viewBox="0 0 32 32" fill="none" xmlns="http://www.w3.org/2000/svg">
<rect width="32" height="32" rx="16" fill="black"/>
<g clip-path="url(#clip0_66_7645)">
<path d="M16 24C20.4183 24 24 20.4183 24 16C24 11.5817 20.4183 8 16 8C11.5817 8 8 11.5817 8 16C8 20.4183 11.5817 24 16 24Z" fill="white"/>
<path d="M19.6571 11.5234H21.15L18.0425 14.7454C16.9174 15.9119 15.0934 15.9119 13.9707 14.7454L10.8632 11.5234H12.3561L14.7159 13.9709C15.4294 14.7088 16.5838 14.7088 17.2949 13.9709L19.6571 11.5234ZM12.3366 20.4854H10.8438L13.9707 17.2415C15.0958 16.075 16.9199 16.075 18.045 17.2415L21.1719 20.4854H19.6791L17.2998 18.016C16.5862 17.2781 15.4319 17.2781 14.7208 18.016L12.3366 20.4854Z" fill="black"/>
</g>
<defs>
<clipPath id="clip0_66_7645">
<rect width="16" height="16" fill="white" transform="translate(8 8)"/>
</clipPath>
</defs>
</svg>
