<svg width="24" height="24" viewBox="0 0 24 24" fill="none" xmlns="http://www.w3.org/2000/svg">
<rect width="24" height="24" rx="12" fill="black"/>
<g clip-path="url(#clip0_66_4840)">
<path d="M12 18C15.3137 18 18 15.3137 18 12C18 8.68629 15.3137 6 12 6C8.68629 6 6 8.68629 6 12C6 15.3137 8.68629 18 12 18Z" fill="white"/>
<path d="M14.7429 8.64062H15.8625L13.5319 11.0571C12.6881 11.9319 11.32 11.9319 10.478 11.0571L8.14742 8.64062H9.26706L11.0369 10.4762C11.5721 11.0297 12.4378 11.0297 12.9712 10.4762L14.7429 8.64062ZM9.25245 15.3621H8.13281L10.478 12.9292C11.3219 12.0543 12.6899 12.0543 13.5337 12.9292L15.8789 15.3621H14.7593L12.9748 13.51C12.4397 12.9566 11.5739 12.9566 11.0406 13.51L9.25245 15.3621Z" fill="black"/>
</g>
<defs>
<clipPath id="clip0_66_4840">
<rect width="12" height="12" fill="white" transform="translate(6 6)"/>
</clipPath>
</defs>
</svg>
