<svg  width="18" height="18" viewBox="0 0 18 18" fill="none" xmlns="http://www.w3.org/2000/svg">
<path fill-rule="evenodd" clip-rule="evenodd" d="M9 0.875C4.5125 0.875 0.875 4.5125 0.875 9C0.875 13.4875 4.5125 17.125 9 17.125C13.4875 17.125 17.125 13.4875 17.125 9C17.125 4.5125 13.4875 0.875 9 0.875ZM9.625 4C9.625 3.83424 9.55915 3.67527 9.44194 3.55806C9.32473 3.44085 9.16576 3.375 9 3.375C8.83424 3.375 8.67527 3.44085 8.55806 3.55806C8.44085 3.67527 8.375 3.83424 8.375 4V4.68C7.85239 4.76794 7.35984 4.98443 6.94167 5.31C6.34833 5.78167 6.015 6.435 6.015 7.125C6.015 7.81583 6.34833 8.46833 6.9425 8.94C7.36083 9.27333 7.86083 9.47917 8.375 9.57V12.0517C8.09818 11.9875 7.83715 11.8682 7.6075 11.7008L6.875 11.1508C6.80934 11.1016 6.73462 11.0658 6.65511 11.0454C6.5756 11.025 6.49286 11.0205 6.41161 11.0321C6.24752 11.0556 6.09946 11.1432 6 11.2758C5.90054 11.4084 5.85784 11.5751 5.88128 11.7392C5.90472 11.9033 5.99239 12.0514 6.125 12.1508L6.8575 12.7008C7.30167 13.0342 7.83167 13.2383 8.375 13.3258V14C8.375 14.1658 8.44085 14.3247 8.55806 14.4419C8.67527 14.5592 8.83424 14.625 9 14.625C9.16576 14.625 9.32473 14.5592 9.44194 14.4419C9.55915 14.3247 9.625 14.1658 9.625 14V13.325C10.1738 13.2425 10.6945 13.0284 11.1425 12.7008C11.7633 12.235 12.125 11.5808 12.125 10.875C12.125 10.1692 11.7633 9.515 11.1425 9.04917C10.6946 8.72128 10.1739 8.50683 9.625 8.42417V5.96167C9.86667 6.03 10.0908 6.13917 10.28 6.28917L10.6258 6.56417C10.7557 6.66727 10.9212 6.71457 11.0859 6.69566C11.2506 6.67675 11.4011 6.59318 11.5042 6.46333C11.6073 6.33349 11.6546 6.168 11.6357 6.00328C11.6167 5.83856 11.5332 5.6881 11.4033 5.585L11.0575 5.31C10.6395 4.98486 10.1472 4.76866 9.625 4.68083V4Z" fill="currentColor"/>
</svg>
