<svg width="14" height="18" viewBox="0 0 14 18" fill="none" xmlns="http://www.w3.org/2000/svg">
<path fill-rule="evenodd" clip-rule="evenodd" d="M7 0.250002C5.39917 0.250002 3.82 0.342502 2.26667 0.522502C1.01917 0.667502 0.125 1.73917 0.125 2.96417V17.125C0.125024 17.2272 0.15009 17.3278 0.198003 17.418C0.245916 17.5082 0.315217 17.5853 0.399837 17.6426C0.484457 17.6998 0.581818 17.7354 0.683396 17.7463C0.784974 17.7572 0.887672 17.743 0.9825 17.705L3.875 16.5483L6.76833 17.705C6.91707 17.7644 7.08293 17.7644 7.23167 17.705L10.125 16.5483L13.0175 17.705C13.1123 17.743 13.215 17.7572 13.3166 17.7463C13.4182 17.7354 13.5155 17.6998 13.6002 17.6426C13.6848 17.5853 13.7541 17.5082 13.802 17.418C13.8499 17.3278 13.875 17.2272 13.875 17.125V2.96417C13.875 1.73917 12.9808 0.667502 11.7333 0.522502C10.1621 0.340544 8.58171 0.249559 7 0.250002ZM9.94167 6.31667C10.0521 6.19819 10.1122 6.04148 10.1093 5.87957C10.1065 5.71765 10.0409 5.56316 9.92635 5.44865C9.81184 5.33414 9.65735 5.26855 9.49543 5.26569C9.33352 5.26283 9.17681 5.32293 9.05833 5.43333L4.05833 10.4333C3.99693 10.4906 3.94768 10.5596 3.91352 10.6362C3.87936 10.7129 3.86099 10.7956 3.85951 10.8796C3.85803 10.9635 3.87346 11.0468 3.9049 11.1247C3.93633 11.2025 3.98312 11.2732 4.04247 11.3325C4.10182 11.3919 4.17251 11.4387 4.25034 11.4701C4.32816 11.5015 4.41152 11.517 4.49543 11.5155C4.57935 11.514 4.66212 11.4956 4.73878 11.4615C4.81545 11.4273 4.88445 11.3781 4.94167 11.3167L9.94167 6.31667ZM4.1875 6.5C4.1875 6.25136 4.28627 6.0129 4.46209 5.83709C4.6379 5.66127 4.87636 5.5625 5.125 5.5625C5.37364 5.5625 5.6121 5.66127 5.78791 5.83709C5.96373 6.0129 6.0625 6.25136 6.0625 6.5C6.0625 6.74864 5.96373 6.9871 5.78791 7.16291C5.6121 7.33873 5.37364 7.4375 5.125 7.4375C4.87636 7.4375 4.6379 7.33873 4.46209 7.16291C4.28627 6.9871 4.1875 6.74864 4.1875 6.5ZM8.875 9.3125C8.62636 9.3125 8.3879 9.41127 8.21209 9.58709C8.03627 9.7629 7.9375 10.0014 7.9375 10.25C7.9375 10.4986 8.03627 10.7371 8.21209 10.9129C8.3879 11.0887 8.62636 11.1875 8.875 11.1875C9.12364 11.1875 9.3621 11.0887 9.53791 10.9129C9.71373 10.7371 9.8125 10.4986 9.8125 10.25C9.8125 10.0014 9.71373 9.7629 9.53791 9.58709C9.3621 9.41127 9.12364 9.3125 8.875 9.3125Z" fill="black"/>
</svg>
