<svg width="18" height="14" viewBox="0 0 18 14" fill="none" xmlns="http://www.w3.org/2000/svg">
<path fill-rule="evenodd" clip-rule="evenodd" d="M0.25 2C0.25 1.50272 0.447544 1.02581 0.799175 0.674175C1.15081 0.322544 1.62772 0.125 2.125 0.125H15.875C16.3723 0.125 16.8492 0.322544 17.2008 0.674175C17.5525 1.02581 17.75 1.50272 17.75 2V12C17.75 12.4973 17.5525 12.9742 17.2008 13.3258C16.8492 13.6775 16.3723 13.875 15.875 13.875H2.125C1.62772 13.875 1.15081 13.6775 0.799175 13.3258C0.447544 12.9742 0.25 12.4973 0.25 12V2ZM1.5 10.3833V12C1.5 12.345 1.78 12.625 2.125 12.625H15.875C16.0408 12.625 16.1997 12.5592 16.3169 12.4419C16.4342 12.3247 16.5 12.1658 16.5 12V10.3833L14.2583 8.1425C14.024 7.90842 13.7063 7.77693 13.375 7.77693C13.0437 7.77693 12.726 7.90842 12.4917 8.1425L11.7583 8.875L12.5667 9.68333C12.6281 9.74055 12.6773 9.80955 12.7115 9.88622C12.7456 9.96288 12.764 10.0456 12.7655 10.1296C12.767 10.2135 12.7515 10.2968 12.7201 10.3747C12.6887 10.4525 12.6419 10.5232 12.5825 10.5825C12.5232 10.6419 12.4525 10.6887 12.3747 10.7201C12.2968 10.7515 12.2135 10.767 12.1296 10.7655C12.0456 10.764 11.9629 10.7456 11.8862 10.7115C11.8096 10.6773 11.7406 10.6281 11.6833 10.5667L7.38333 6.2675C7.14896 6.03342 6.83125 5.90193 6.5 5.90193C6.16875 5.90193 5.85104 6.03342 5.61667 6.2675L1.5 10.3842V10.3833ZM9.9375 3.875C9.9375 3.62636 10.0363 3.3879 10.2121 3.21209C10.3879 3.03627 10.6264 2.9375 10.875 2.9375C11.1236 2.9375 11.3621 3.03627 11.5379 3.21209C11.7137 3.3879 11.8125 3.62636 11.8125 3.875C11.8125 4.12364 11.7137 4.3621 11.5379 4.53791C11.3621 4.71373 11.1236 4.8125 10.875 4.8125C10.6264 4.8125 10.3879 4.71373 10.2121 4.53791C10.0363 4.3621 9.9375 4.12364 9.9375 3.875Z" fill="black"/>
</svg>
