<svg width="18" height="16" viewBox="0 0 18 16" fill="none" xmlns="http://www.w3.org/2000/svg">
<path fill-rule="evenodd" clip-rule="evenodd" d="M0.875 3C0.875 2.33696 1.13839 1.70107 1.60723 1.23223C2.07607 0.763392 2.71196 0.5 3.375 0.5H14.625C15.288 0.5 15.9239 0.763392 16.3928 1.23223C16.8616 1.70107 17.125 2.33696 17.125 3V13C17.125 13.663 16.8616 14.2989 16.3928 14.7678C15.9239 15.2366 15.288 15.5 14.625 15.5H3.375C2.71196 15.5 2.07607 15.2366 1.60723 14.7678C1.13839 14.2989 0.875 13.663 0.875 13V3ZM4.18333 3.80833C4.30052 3.69129 4.45937 3.62555 4.625 3.62555C4.79063 3.62555 4.94948 3.69129 5.06667 3.80833L6.94167 5.68333C7.05871 5.80052 7.12445 5.95937 7.12445 6.125C7.12445 6.29063 7.05871 6.44948 6.94167 6.56667L5.06667 8.44167C4.94819 8.55207 4.79148 8.61217 4.62956 8.60931C4.46765 8.60646 4.31316 8.54086 4.19865 8.42635C4.08414 8.31184 4.01854 8.15735 4.01569 7.99543C4.01283 7.83352 4.07293 7.67681 4.18333 7.55833L5.61667 6.125L4.18333 4.69167C4.06629 4.57448 4.00055 4.41563 4.00055 4.25C4.00055 4.08437 4.06629 3.92552 4.18333 3.80833ZM7.75 7.375C7.58424 7.375 7.42527 7.44085 7.30806 7.55806C7.19085 7.67527 7.125 7.83424 7.125 8C7.125 8.16576 7.19085 8.32473 7.30806 8.44194C7.42527 8.55915 7.58424 8.625 7.75 8.625H10.25C10.4158 8.625 10.5747 8.55915 10.6919 8.44194C10.8092 8.32473 10.875 8.16576 10.875 8C10.875 7.83424 10.8092 7.67527 10.6919 7.55806C10.5747 7.44085 10.4158 7.375 10.25 7.375H7.75Z" fill="black"/>
</svg>
