<svg width="14" height="18" viewBox="0 0 14 18" fill="current" xmlns="http://www.w3.org/2000/svg">
<path fill-rule="evenodd" clip-rule="evenodd" d="M3.24927 4C3.24927 3.00544 3.64435 2.05161 4.34762 1.34835C5.05088 0.645088 6.0047 0.25 6.99927 0.25C7.99383 0.25 8.94766 0.645088 9.65092 1.34835C10.3542 2.05161 10.7493 3.00544 10.7493 4C10.7493 4.99456 10.3542 5.94839 9.65092 6.65165C8.94766 7.35491 7.99383 7.75 6.99927 7.75C6.0047 7.75 5.05088 7.35491 4.34762 6.65165C3.64435 5.94839 3.24927 4.99456 3.24927 4ZM0.1251 15.7542C0.1532 13.9496 0.889801 12.2284 2.1759 10.9622C3.462 9.69592 5.19444 8.98621 6.99927 8.98621C8.80409 8.98621 10.5365 9.69592 11.8226 10.9622C13.1087 12.2284 13.8453 13.9496 13.8734 15.7542C13.8756 15.8757 13.8423 15.9951 13.7776 16.098C13.713 16.2009 13.6197 16.2826 13.5093 16.3333C11.4669 17.2698 9.24607 17.753 6.99927 17.75C4.6776 17.75 2.47177 17.2433 0.489266 16.3333C0.378838 16.2826 0.285579 16.2009 0.220901 16.098C0.156224 15.9951 0.122932 15.8757 0.1251 15.7542Z" fill="current"/>
</svg>
