<svg width="40" height="40" viewBox="0 0 40 40" fill="none" xmlns="http://www.w3.org/2000/svg">
<rect width="40" height="40" rx="20" fill="#3052FF"/>
<path d="M20 17C19.0054 17 18.0516 17.3951 17.3483 18.0983C16.6451 18.8016 16.25 19.7554 16.25 20.75C16.25 21.7446 16.6451 22.6984 17.3483 23.4017C18.0516 24.1049 19.0054 24.5 20 24.5C20.9946 24.5 21.9484 24.1049 22.6517 23.4017C23.3549 22.6984 23.75 21.7446 23.75 20.75C23.75 19.7554 23.3549 18.8016 22.6517 18.0983C21.9484 17.3951 20.9946 17 20 17Z" fill="white"/>
<path fill-rule="evenodd" clip-rule="evenodd" d="M17.344 11.0713C19.1134 10.9762 20.8866 10.9762 22.656 11.0713C23.623 11.1233 24.486 11.6563 24.988 12.4613L25.809 13.7783C26.049 14.1613 26.454 14.4213 26.919 14.4883C27.305 14.5423 27.689 14.6013 28.071 14.6653C29.503 14.9043 30.5 16.1583 30.5 17.5743V26.0003C30.5 26.7959 30.1839 27.559 29.6213 28.1216C29.0587 28.6842 28.2956 29.0003 27.5 29.0003H12.5C11.7044 29.0003 10.9413 28.6842 10.3787 28.1216C9.81607 27.559 9.5 26.7959 9.5 26.0003V17.5743C9.5 16.1583 10.497 14.9043 11.929 14.6653C12.311 14.6013 12.695 14.5423 13.08 14.4873C13.3056 14.4571 13.5219 14.3779 13.7136 14.2552C13.9054 14.1326 14.068 13.9694 14.19 13.7773L15.012 12.4623C15.2605 12.0603 15.6022 11.7242 16.0081 11.4822C16.414 11.2403 16.8722 11.0986 17.344 11.0713ZM14.75 20.7503C14.75 19.3579 15.3031 18.0225 16.2877 17.038C17.2723 16.0534 18.6076 15.5003 20 15.5003C21.3924 15.5003 22.7277 16.0534 23.7123 17.038C24.6969 18.0225 25.25 19.3579 25.25 20.7503C25.25 22.1427 24.6969 23.478 23.7123 24.4626C22.7277 25.4472 21.3924 26.0003 20 26.0003C18.6076 26.0003 17.2723 25.4472 16.2877 24.4626C15.3031 23.478 14.75 22.1427 14.75 20.7503ZM26.75 19.2503C26.9489 19.2503 27.1397 19.1713 27.2803 19.0306C27.421 18.89 27.5 18.6992 27.5 18.5003C27.5 18.3014 27.421 18.1106 27.2803 17.9699C27.1397 17.8293 26.9489 17.7503 26.75 17.7503C26.5511 17.7503 26.3603 17.8293 26.2197 17.9699C26.079 18.1106 26 18.3014 26 18.5003C26 18.6992 26.079 18.89 26.2197 19.0306C26.3603 19.1713 26.5511 19.2503 26.75 19.2503Z" fill="white"/>
</svg>
