<svg width="20" height="20" viewBox="0 0 20 20" fill="none" xmlns="http://www.w3.org/2000/svg">
<path fill-rule="evenodd" clip-rule="evenodd" d="M15.834 4.166C14.6802 3.01232 13.2102 2.22669 11.6098 1.90845C10.0095 1.5902 8.35079 1.75364 6.84336 2.37809C5.33593 3.00255 4.04752 4.05997 3.14104 5.41665C2.23457 6.77334 1.75074 8.36835 1.75074 10C1.75074 11.6317 2.23457 13.2267 3.14104 14.5833C4.04752 15.94 5.33593 16.9975 6.84336 17.6219C8.35079 18.2464 10.0095 18.4098 11.6098 18.0916C13.2102 17.7733 14.6802 16.9877 15.834 15.834C15.9762 15.7015 16.1642 15.6294 16.3585 15.6328C16.5528 15.6363 16.7382 15.715 16.8756 15.8524C17.013 15.9898 17.0917 16.1752 17.0952 16.3695C17.0986 16.5638 17.0265 16.7518 16.894 16.894C13.087 20.702 6.914 20.702 3.106 16.894C-0.702 13.087 -0.702 6.914 3.106 3.106C6.913 -0.702 13.086 -0.702 16.894 3.106C17.8006 4.01039 18.5197 5.08499 19.0098 6.26807C19.4999 7.45116 19.7515 8.71941 19.75 10C19.75 10.975 19.454 11.887 18.941 12.571C18.427 13.256 17.661 13.75 16.75 13.75C15.846 13.75 15.084 13.263 14.57 12.586C14.0278 13.5444 13.1979 14.3081 12.1978 14.7689C11.1978 15.2298 10.0781 15.3645 8.99721 15.1541C7.91634 14.9436 6.92901 14.3986 6.1749 13.5962C5.42079 12.7938 4.93809 11.7746 4.79506 10.6827C4.65204 9.59088 4.85596 8.48171 5.37795 7.51214C5.89995 6.54256 6.7136 5.76166 7.70379 5.27991C8.69398 4.79817 9.81059 4.63997 10.8956 4.8277C11.9807 5.01543 12.9792 5.53958 13.75 6.326V6.25C13.75 6.05109 13.829 5.86032 13.9697 5.71967C14.1103 5.57902 14.3011 5.5 14.5 5.5C14.6989 5.5 14.8897 5.57902 15.0303 5.71967C15.171 5.86032 15.25 6.05109 15.25 6.25V10C15.25 10.682 15.458 11.27 15.759 11.671C16.059 12.072 16.418 12.25 16.75 12.25C17.082 12.25 17.44 12.072 17.741 11.671C18.041 11.271 18.25 10.681 18.25 10C18.2516 8.91633 18.039 7.84303 17.6244 6.84182C17.2098 5.84061 16.6013 4.93124 15.834 4.166ZM13.75 10C13.75 9.00544 13.3549 8.05161 12.6517 7.34835C11.9484 6.64509 10.9946 6.25 10 6.25C9.00544 6.25 8.05161 6.64509 7.34835 7.34835C6.64509 8.05161 6.25 9.00544 6.25 10C6.25 10.9946 6.64509 11.9484 7.34835 12.6517C8.05161 13.3549 9.00544 13.75 10 13.75C10.9946 13.75 11.9484 13.3549 12.6517 12.6517C13.3549 11.9484 13.75 10.9946 13.75 10Z" fill="#3052FF"/>
</svg>
