<svg width="20" height="18" viewBox="0 0 20 18" fill="none" xmlns="http://www.w3.org/2000/svg">
<path d="M0.273 2.625C1.09435 1.89854 2.15348 1.4983 3.25 1.5H16.75C17.891 1.5 18.933 1.925 19.727 2.625C19.6357 1.89994 19.2828 1.23315 18.7346 0.749825C18.1865 0.266498 17.4808 -0.000129004 16.75 4.68247e-08H3.25C2.51921 -0.000129004 1.81349 0.266498 1.26536 0.749825C0.717217 1.23315 0.364349 1.89994 0.273 2.625ZM0.273 5.625C1.09435 4.89854 2.15348 4.4983 3.25 4.5H16.75C17.891 4.5 18.933 4.925 19.727 5.625C19.6357 4.89994 19.2828 4.23315 18.7346 3.74983C18.1865 3.2665 17.4808 2.99987 16.75 3H3.25C2.51921 2.99987 1.81349 3.2665 1.26536 3.74983C0.717217 4.23315 0.364349 4.89994 0.273 5.625ZM3.25 6C2.45435 6 1.69129 6.31607 1.12868 6.87868C0.566071 7.44129 0.25 8.20435 0.25 9V15C0.25 15.7956 0.566071 16.5587 1.12868 17.1213C1.69129 17.6839 2.45435 18 3.25 18H16.75C17.5456 18 18.3087 17.6839 18.8713 17.1213C19.4339 16.5587 19.75 15.7956 19.75 15V9C19.75 8.20435 19.4339 7.44129 18.8713 6.87868C18.3087 6.31607 17.5456 6 16.75 6H13C12.8011 6 12.6103 6.07902 12.4697 6.21967C12.329 6.36032 12.25 6.55109 12.25 6.75C12.25 7.34674 12.0129 7.91903 11.591 8.34099C11.169 8.76295 10.5967 9 10 9C9.40326 9 8.83097 8.76295 8.40901 8.34099C7.98705 7.91903 7.75 7.34674 7.75 6.75C7.75 6.55109 7.67098 6.36032 7.53033 6.21967C7.38968 6.07902 7.19891 6 7 6H3.25Z" fill="#3052FF"/>
</svg>
